<mxfile host="65bd71144e">
    <diagram id="Rca3DimDD9cE4RAJ2p5d" name="Page-1">
        <mxGraphModel dx="1095" dy="191" grid="1" gridSize="10" guides="1" tooltips="1" connect="1" arrows="1" fold="1" page="1" pageScale="1" pageWidth="850" pageHeight="1100" math="0" shadow="0">
            <root>
                <mxCell id="0"/>
                <mxCell id="1" parent="0"/>
                <mxCell id="16" value="Users&lt;br&gt;" style="swimlane;fontStyle=0;childLayout=stackLayout;horizontal=1;startSize=30;horizontalStack=0;resizeParent=1;resizeParentMax=0;resizeLast=0;collapsible=1;marginBottom=0;whiteSpace=wrap;html=1;" vertex="1" parent="1">
                    <mxGeometry x="130" y="90" width="140" height="300" as="geometry"/>
                </mxCell>
                <mxCell id="17" value="id&lt;span style=&quot;white-space: pre;&quot;&gt;&#9;&lt;/span&gt;" style="text;strokeColor=none;fillColor=none;align=left;verticalAlign=middle;spacingLeft=4;spacingRight=4;overflow=hidden;points=[[0,0.5],[1,0.5]];portConstraint=eastwest;rotatable=0;whiteSpace=wrap;html=1;" vertex="1" parent="16">
                    <mxGeometry y="30" width="140" height="30" as="geometry"/>
                </mxCell>
                <mxCell id="18" value="firstName&lt;br&gt;&lt;br&gt;" style="text;strokeColor=none;fillColor=none;align=left;verticalAlign=middle;spacingLeft=4;spacingRight=4;overflow=hidden;points=[[0,0.5],[1,0.5]];portConstraint=eastwest;rotatable=0;whiteSpace=wrap;html=1;" vertex="1" parent="16">
                    <mxGeometry y="60" width="140" height="30" as="geometry"/>
                </mxCell>
                <mxCell id="19" value="lastName" style="text;strokeColor=none;fillColor=none;align=left;verticalAlign=middle;spacingLeft=4;spacingRight=4;overflow=hidden;points=[[0,0.5],[1,0.5]];portConstraint=eastwest;rotatable=0;whiteSpace=wrap;html=1;" vertex="1" parent="16">
                    <mxGeometry y="90" width="140" height="30" as="geometry"/>
                </mxCell>
                <mxCell id="20" value="phoneNumber&lt;br&gt;" style="text;strokeColor=none;fillColor=none;align=left;verticalAlign=middle;spacingLeft=4;spacingRight=4;overflow=hidden;points=[[0,0.5],[1,0.5]];portConstraint=eastwest;rotatable=0;whiteSpace=wrap;html=1;" vertex="1" parent="16">
                    <mxGeometry y="120" width="140" height="30" as="geometry"/>
                </mxCell>
                <mxCell id="21" value="password" style="text;strokeColor=none;fillColor=none;align=left;verticalAlign=middle;spacingLeft=4;spacingRight=4;overflow=hidden;points=[[0,0.5],[1,0.5]];portConstraint=eastwest;rotatable=0;whiteSpace=wrap;html=1;" vertex="1" parent="16">
                    <mxGeometry y="150" width="140" height="30" as="geometry"/>
                </mxCell>
                <mxCell id="22" value="salt" style="text;strokeColor=none;fillColor=none;align=left;verticalAlign=middle;spacingLeft=4;spacingRight=4;overflow=hidden;points=[[0,0.5],[1,0.5]];portConstraint=eastwest;rotatable=0;whiteSpace=wrap;html=1;" vertex="1" parent="16">
                    <mxGeometry y="180" width="140" height="30" as="geometry"/>
                </mxCell>
                <mxCell id="23" value="role&amp;nbsp;" style="text;strokeColor=none;fillColor=none;align=left;verticalAlign=middle;spacingLeft=4;spacingRight=4;overflow=hidden;points=[[0,0.5],[1,0.5]];portConstraint=eastwest;rotatable=0;whiteSpace=wrap;html=1;" vertex="1" parent="16">
                    <mxGeometry y="210" width="140" height="30" as="geometry"/>
                </mxCell>
                <mxCell id="34" value="branchId" style="text;strokeColor=none;fillColor=none;align=left;verticalAlign=middle;spacingLeft=4;spacingRight=4;overflow=hidden;points=[[0,0.5],[1,0.5]];portConstraint=eastwest;rotatable=0;whiteSpace=wrap;html=1;" vertex="1" parent="16">
                    <mxGeometry y="240" width="140" height="30" as="geometry"/>
                </mxCell>
                <mxCell id="57" value="status" style="text;strokeColor=none;fillColor=none;align=left;verticalAlign=middle;spacingLeft=4;spacingRight=4;overflow=hidden;points=[[0,0.5],[1,0.5]];portConstraint=eastwest;rotatable=0;whiteSpace=wrap;html=1;" vertex="1" parent="16">
                    <mxGeometry y="270" width="140" height="30" as="geometry"/>
                </mxCell>
                <mxCell id="24" value="Employee" style="swimlane;fontStyle=0;childLayout=stackLayout;horizontal=1;startSize=30;horizontalStack=0;resizeParent=1;resizeParentMax=0;resizeLast=0;collapsible=1;marginBottom=0;whiteSpace=wrap;html=1;" vertex="1" parent="1">
                    <mxGeometry x="330" y="90" width="140" height="180" as="geometry"/>
                </mxCell>
                <mxCell id="25" value="userId" style="text;strokeColor=none;fillColor=none;align=left;verticalAlign=middle;spacingLeft=4;spacingRight=4;overflow=hidden;points=[[0,0.5],[1,0.5]];portConstraint=eastwest;rotatable=0;whiteSpace=wrap;html=1;" vertex="1" parent="24">
                    <mxGeometry y="30" width="140" height="30" as="geometry"/>
                </mxCell>
                <mxCell id="26" value="birthDate" style="text;strokeColor=none;fillColor=none;align=left;verticalAlign=middle;spacingLeft=4;spacingRight=4;overflow=hidden;points=[[0,0.5],[1,0.5]];portConstraint=eastwest;rotatable=0;whiteSpace=wrap;html=1;" vertex="1" parent="24">
                    <mxGeometry y="60" width="140" height="30" as="geometry"/>
                </mxCell>
                <mxCell id="27" value="address" style="text;strokeColor=none;fillColor=none;align=left;verticalAlign=middle;spacingLeft=4;spacingRight=4;overflow=hidden;points=[[0,0.5],[1,0.5]];portConstraint=eastwest;rotatable=0;whiteSpace=wrap;html=1;" vertex="1" parent="24">
                    <mxGeometry y="90" width="140" height="30" as="geometry"/>
                </mxCell>
                <mxCell id="28" value="dailyWage&lt;br&gt;" style="text;strokeColor=none;fillColor=none;align=left;verticalAlign=middle;spacingLeft=4;spacingRight=4;overflow=hidden;points=[[0,0.5],[1,0.5]];portConstraint=eastwest;rotatable=0;whiteSpace=wrap;html=1;" vertex="1" parent="24">
                    <mxGeometry y="120" width="140" height="30" as="geometry"/>
                </mxCell>
                <mxCell id="29" value="revenues" style="text;strokeColor=none;fillColor=none;align=left;verticalAlign=middle;spacingLeft=4;spacingRight=4;overflow=hidden;points=[[0,0.5],[1,0.5]];portConstraint=eastwest;rotatable=0;whiteSpace=wrap;html=1;" vertex="1" parent="24">
                    <mxGeometry y="150" width="140" height="30" as="geometry"/>
                </mxCell>
                <mxCell id="32" value="" style="shape=image;verticalLabelPosition=bottom;labelBackgroundColor=default;verticalAlign=top;aspect=fixed;imageAspect=0;image=data:image/jpeg,/9j/4AAQSkZJRgABAQEBIAEgAAD/4gHbSUNDX1BST0ZJTEUAAQEAAAHLAAAAAAJAAABtbnRyUkdCIFhZWiAAAAAAAAAAAAAAAABhY3NwAAAAAAAAAAAAAAAAAAAAAAAAAAAAAAAAAAAAAQAA9tYAAQAAAADTLVF0BQ8AAAAAAAAAAAAAAAAAAAAAAAAAAAAAAAAAAAAAAAAAAAAAAAAAAAAAAAAAAAAAAAlyWFlaAAAA8AAAABRnWFlaAAABBAAAABRiWFlaAAABGAAAABR3dHB0AAABLAAAABRjcHJ0AAABQAAAAAxyVFJDAAABTAAAACBnVFJDAAABTAAAACBiVFJDAAABTAAAACBkZXNjAAABbAAAAF9YWVogAAAAAAAAb58AADj0AAADkVhZWiAAAAAAAABilgAAt4cAABjcWFlaIAAAAAAAACShAAAPhQAAttNYWVogAAAAAAAA808AAQAAAAEWwnRleHQAAAAATi9BAHBhcmEAAAAAAAMAAAACZmYAAPKnAAANWQAAE9AAAApbZGVzYwAAAAAAAAAFc1JHQgAAAAAAAAAAAAAAAAAAAAAAAAAAAAAAAAAAAAAAAAAAAAAAAAAAAAAAAAAAAAAAAAAAAAAAAAAAAAAAAAAAAAAAAAAAAAAAAAAAAAAAAAD/2wBDAAQDAwQDAwQEAwQFBAQFBgoHBgYGBg0JCggKDw0QEA8NDw4RExgUERIXEg4PFRwVFxkZGxsbEBQdHx0aHxgaGxr/2wBDAQQFBQYFBgwHBwwaEQ8RGhoaGhoaGhoaGhoaGhoaGhoaGhoaGhoaGhoaGhoaGhoaGhoaGhoaGhoaGhoaGhoaGhr/wgARCAPOBQADASIAAhEBAxEB/8QAGwABAAMBAQEBAAAAAAAAAAAAAAECAwQFBgf/xAAUAQEAAAAAAAAAAAAAAAAAAAAA/9oADAMBAAIQAxAAAAH9/AAAAAAAAAAAAAAAAAAAAiaE1mxRcUXFFxRcUXFFxRcUXFFxRcUXFFxRcUXFFxRcVtFTQAAAAAAAAAAAAAAAAAAAAAAAAAAAAAAAAAAAAAAAAAAAAAAAAAAAAAAAAAAAADHbE18X2vgz7efznzj9Q6Pykfq0/k3QfqgAAAAAAAAAAAAGO2JrMSAAAAAAAAAAAAAAAAAAAAAAAAAAAAAAAAAAAAAAAAAAAAAAAAAAAAAAAAAAAAMdsTWY809Onj2PZp5/pgAAA4DveFc9p4HvgAAAAAAADHbE1mJAAAAAAAAAAAAAAAAAAAAAAAAAAAAAAAAAAAAAAAAAAAAAAAAAAAAAAAAAAAAGO2JrMeeei8+p6Ty9TvcvUAADmOl5Gh6YAAAAAAAAGO2JrMSAAAAAAAAAAAAAAAAAAAAAAAAAAAAAAAAAAAAAAAACCVRZUWVFlRZUWVFlRZUWVFlRZUWVFlRZUWVFlRZUWRIAx2xNctecm3JsTem5GgAAMtcSa8lzvebsdgAAAAAAAGO2JrMSAAAAAAAAAAAAAAAAAAAAAAAAAAAAAAAAAAAAAAAARSZDMaLCqwqsKrCqwqsKrCqwqsKrCqwqsKrCqwqsKxcZ3z0JAx2xNeTrxOa/RBjtTQ1UuAAMdsjmnaph0TuAAAAAAAAMdsTWYkAAAAAAAAAAAAAAAAAAAAAAAAAAAAAAAAAAAAAAAAzmJPlvlv1UfjvtfpA+S+tAAAAAAAAAAAAAADHXLUkDHbE14e6p51vSHjV9scXaAADDeDgy9GCNgAAAAAAAAY7YmsxIBColAlAlAlAlAlAlAlAlAlAlAlAlAlAlAlAmawaK2AAAAAAAAAAAAAAAAAAAAM5iTGm8GwAAAAMOTvyOKnbc1uAAAAAAAAGOuWpIGO2ZfzPQ0PGn2B4unrAAABy9Q8y3ogAAAAAAAABjpmayCJgy2x2OTr/He4/VH5Nqfqj8q4T9jAAAAAAAAAAAAAiYM9cdgAAAAAAAAAAAAAAAAAAADOYkyjTAsVG3D0nWAADPDp4illie3h7gAAAAAAADHXLUkCJGNdxzugc7oHO6Bzugc7oHO6Bzugc7oHO6Bzugc7oHO6Bzugc7oHO6BzugY6zIAiYMtsdg86x3uCD0Hnj0AAAHBQ9J5eh6AAAAAAAAETBltjsAAAAAAAAAAAAAAAAAAAAZzEicOE9O3nZnqX8L3QAAClLecdV+CTv38r1QAAAAAAADHXLUkAAAAAAAAAAAAAAAAAAAACJgy2x2OWs2Ir0aHPHSAAAMM7Zl7x0AAAAAAAAAGO2OwAAAAAAAAAAAAAAAAAAABnMSTHFzHsx42Z71PEk915vpAAEMvKPZnwLnuT4ntgAAAAAAAGOuWpIAAAAAAAAAAAAAAAAAAAAETBltjsedbr0OfoULgAAA5MuupXpw0LgAAAAAAARMGW2OwAAAAAAAAAAAAAAAAAAABnMSXedznsvHoe28D3wAAAx8o9t87oe88T2wAAAAAAADHXLUkAgKC6guoLqC6guoLqC6guoLqC6guoLqC6guoLqC6gvOdiwETBltlY8iPbHkdnWAAAAObl9MeR6lwAAAAAAAAicyu2egAAAAAAAAAAAAAAAAAAABnMSXedznsuLtAAAADHyj23zuh7zxPbAAAAAAAAMdctSQM9MTS0fJn1r4Wh96+C6D7V8rwH3Lm6QAAAAAAAAAAACM9cTWYkArntBzugc7oHO6Bzugc7oHO6Bzugc7oHO6Bzugc7oHO6Bzugc7oHO6Bzugc+mkkSAAAAAAAAAAAAAAAAAAAAGcxJd51D1HH2AAAABh5x7D533y4AAAAAAAAMdctSQMdsTXi7ani+d9dQ8vyvqbnzOX1Yz0AAULsoNmG4AAAAAAAAx2xNZiQAAAAAAAAAAAAAAAAAAAAAAAAAAAAAAAAAAAAAAACicjSgTriNmI2YjZiNmIvQGmY2YjZiNmI2YjZiNmI2YjZiNmIa56EgY7Ymvn+hJ4mvrDzfSAAABx9g8fT1B43sgAAAAAAAAx2xNZiQAAAAAAAAAAAAAAAAAAAAAAAAAAAAAAAAAAAAAAABWwpGgzaDNoM2gzaDNoM2gzaDNoM2gzaDNoM2gzaDNoM2gzm4iQAY7YmvkevJ8/6HoAAAABydY8DT2x892+oAAAAAAAAGO2JrMSAAAAAAAAAAAAAAAAAAAAAAAAAAAAAAAAAAAAAAAAAAAAAAAAAAAAAAAAAAAAMdsTXy/Uk+e6PZHkd/QAAAHH2DwNPbHzvb6oAAAAAAAAY7YmsxIAAAAAAAAAAAAAAAAAAAAAAAAAAAAAAAAAAAAAAAAAAAAAAAAAAAAAAAAAAAAx2xNfM9ODyLeoPF19UeL6e0lwAOTrg8PX1qnidnoiwAAAAAAAGO2JrMSAAAAAAAAAAAAAAAAAAAAAAAAAAAAAAAAAAAAAAAAAAAAAAAAAAAAAAAAAAAAMdsTXg78jldAxW1NwAAMdsjmrvY3AAAAAAAAAx2xNZiQAAAAAAAAAAAAAAAAAAAAAAAAAAAAAAAAAAAAAAAAAAAAAAAAAAAAAAAAAAABS8GU2qAAAAAAAAAAAAAAAARabEgAAAAAAAAAAAAAAAAAAAAAAAAAAAAAAAAAAAAAAAAAAAAAAAAAAAAAAAAAAAAAAAAAAAAAAAAAAAAAAAAAAAAAAAAAAAAAAAAAAAAAAAAAAAAAAAAAAAAAAAAAAAAAAAAAAAAAAAAAAAAAAAAAAAAAAAAAAAAAAAAAAAAAAAAAAAAAAAAAAAAAAAAAAAAAAAAAAAAAAAAAAAAAAAAAAAAAAAAAAAAAAAAAAAAAAAAAAAAAAAAAAAAAAAAAAAAAAAAAAAAAAAAAAAAAAAAAAAAAAAAAAAAAAAAAAAAAAAAAAAAAAAAAAAAAAAAAAAAAAAAAAAAAAAAAAAAAAAAAAAAAAAAAAAAAAAAAAAAAAAAAAAAAAAAAAAAAAAAAAAAAAAAAAAAAAAAAAAAAAAAAAAAAAAAAAAAAAAAAAAAAAAAAAAAAAAAAAAAAAAAAAAAAAAAAAAAAAAAAAAAAAAAAAAAAAAAAAAAAAAAAAAAAAAAAAAAAAAAAAAAAAAAAAAAAAAAAAAAAAAAEEoEoEoEoEoEoEoEoEoEoEoEoEoEoEoEoEoEgAAIEoEoEoEoEoEoEoEoEoEoEoEoEoEoEoEoEokAAAAAAAAAAAAAAAAAAAAAAAAAAAAAAAAAAAAAAAAAioQ0GbQZtBm0GbQZtBm0GbQZtBm0GbQZtBm0GbQZtBm0GbQVtnckCJzC1jNoM2gzaDNoM2gzaDNoM2gzaDNoM2gzaDNoM2gzaDNoM7TmaokAAAAAAAAAAAAAAAAAAAAAAAAAAAAAAAAAAAAAAAAzmJPk/P+x8c863Z3GvrcXaAAAAAAAAAAAAAAY65akgY7Ymv5/8AoHhng92m58v7HV2Hl/YfA/fAAAAAAAAAAAAADHbE1mJAAAAAAAAAAAAAAAAAAAAAAAAAAAAAAAAAAAAAAAAM5iStsMD0QAAAAUpXjOyfOg9a4AAAAAAAAY65akgY7YmuenGdV+LtAAAAGenGbR59zs6PH9gAAAAAAAAY7YmsxIAAAAAAAAAAAAAAAAAAAAAAAAAAAAAAAAAAAAAAABnMSXcPEe28TqPReJ7YAAAZ+CfROPsAAAAAAAAAMdctSQMdsTWY8o9Z4mZ77zPTAAAB556DwrntPA98AAAAAAAAY7YmsxIAAAAAAAAAAAAAAAAAAAAAAAAAAAAAAAAAAAAAAABnMSXedieu8zqOkAAABz8p6T5z1jtAAAAAAAABjrlqSBjtiazHmHqPEk9p8/qe2+f9Q7AADjOx4Gh7b57sPVAAAAAAAAx2xNZiQAAAAAAAAAAAAAAAAAAAAAAAAAAAAAAAAAAAAAAADOYku8zI9h5uZ6zwfeAAADm8w9x4vtAAAAAAAAAGOuWpIGO2JrMeSeu8aD2nlSeo8PuO4AA4jteJc9gAAAAAAAADHbE1mJAAAAAAAAAAAAAAAAAAAAAAAAAAAAAAAAAAAAAAAAKLYmrODVkNbYwbsBuwG7CTViNbYwbsRswk2YSbMBuxGzGDdhJsxGzGCdc9CQMtakxlJoyF4gXnKTZgN2MG9chtGQ3YDdgN2MG7EbMJNmEmzGDdjBuxG2MaFpAAAAAAAAAAAAAAAAAAAAAAAAAAAAAAAAAAAAAAAABEii4ouKLii4ouKLii4ouKLii4ouKLii4ouKLii4pNhEgABFbii4ouKLii4ouKLii4ouKLii4ouKLii4ouKLii4rMgAAAAAAAAAAAAAAAAAAAAAAAAAAAAAAAAAAAAAAAAAAAAAAAAAAAAAAAAAAAAAAAAAAAAAAAAAAAAAAAAAAAAAAAAAAAAAAAAAAAAAAAAAAAAAAAAAAAAAAAAAAAAAAAAAAAAAAAAAAAAAAAAAAAAAAAAAAAAAAAAAAAAAAAAAAAAAAAAAAAAAAAAAAAAAAAAAAAAAAAAAAAAAAAAAAAAAAAAAAAAAAAAAAAAAAAAAAAAAAAAAAAAAAAAAAAAAAAAAAAAAAAAAAAAAAAAAAAAAAAAAAAAAAAAAAAAAAAAAAAAAAAAAAAAAAAAAAAAAAAAAAAAAAAAAAAAAAAAAAAAAAAAAAAAAAAAAAAAAAAAAAAAAAAAAAAAAAAAAAAAAAAAAAAAAAAAAAAAAAAAAAAAAAAAAAAAAAAAAAAAAAAAAAAAAAAAAAAAAAAAAAAAAAAAAAAAAAAAAAAAAAAAAAAAAAAAAAAAAAAAAAAAAAAAAAAAAAAAAAAAAAAAAAAAAAAAAAAAAAAABChdUWVFlRZUWVFlRZUWVFlRZUWVFlRZUWVFlRZUWVFppYkAqSpJZUWVFlRZUWVFlRZUWVFlRZUWVFlRZUWVFlRZUWUsWAAiKl1RZUWVFlRZUWVFlRZUWVFlRZUWVFlRZUWVFlRZWDRWwAAAAAAAAAAAAAAAAAAABREl3wvzp+uPzfvPuXie2AAAAAAAAAAAAAAZaZakgZa4msx+dn6K/HvoD9BfnHEfqj4Dyz9TcvUAAAAAAAAAAAAMtcTWYkRMGeuOwflPqn6C/P8AgP098J6J9UAAAAAAAAAAAABEjLXHYAAAAAAAAAAAAAAAAAAAAzmJKc3TU4b+mMNwAAAM8DrcVTvVsAAAAAAAAY65akgY7YmvJ14nO6NzyNfSHm37xnoAAxNnFc6nn+gAAAAAAAAMdsTWYkRMGW2Oxhz7aHnR648vq6gAAAc1DscVjrAAAAAAAAiYMtsdgAAAAAAAAAAAAAAAAAAADOYkyptqAAAAAY8vbU4LdNzZlqAAAAAAAAY65akgY7YmvN05FOlmaM9AAABy9WZxOqDn9Dm6QAAAAAAABjtiazEiJgy2x2OLedQAAAADip2UOXTaxqz0AAAAAAAETBltjsAAAAAAAAAAAAAAAAAAAAZzEnBy+4PJ9YAAAAM/M9ceNPsDyPXAAAAAAAADHXLUkDHbE18r1ZPFv68Hn+iAAADj7B5N/THkeuAAAAAAAADHbE1mJETBltjseLn71Tm6wAAAA4uD3B5WPtji7QAAAAAAARMGW2OwAAAAAAAAAAAAAAAAAAABnKDy3sDyY9cfP+j3gAADn5vRHh+3IAAAAAAAAEGWuWpIGO2Zfzu+54se2PIt6o870QAAef6A8O3tDwPfAAAAAAAABjrkazEiJgy2x2PF39MeP7AAAAAcPH7Q8L19gAAAAAAAAiYMtsdgAQSgSqLKySiCyosqLKySrJKskqiyBKosrJKosqLIgsgSiSMtoMI6Bzugc7oHO6Bzugc7oHO6Bzugc7oHO6Bzugc7oHO6Bzugc7oHO6BhOwrcAESMa7jndA53QOd0DndA53QOd0DndA53QOd0DndA53QOd0DndA53QOd0DnncY6zIAiYMtsdjwtvXHl4+1B5mXsjk6wAA4PM+iHh098ed6IAAAAAAAIkY7Y7AClsyy4ouKLii4ouKLii4ouKLii4ouKLii4ouKLii4ouM71FwAAAAAAAAAAAAAAAAAAAAAAAAAAAAAAAAAAAAAAAImDLbHY8SfaHkV9geM9mTg74kAA8nL24PD29cAAAAAAAAImDLbLUAjLXI2/Hf2LlPgfJ/Vsj4jwv1qp+b9n3GxuAAAAAAAAAAAACkTBoAAAAAAAAAAAAAAAAAAAAAAAAAAAAAAAAAAAAAAAACme0Ga4ouKLii4ouKLii4ouKLii4ouKLii4ouKLii4pGkiwARlrkbef6HnHogAAAAcfZyGdZG3VlqAAAAAAAAUiYNAAAAAAAAAAAAAAAAAAAAAAAAAAAAAAAAAAAAAAAAAAAAAAAAAAAAAAAAAAAAARlrkbc+3lHpW8vY6ejyfWAAAGG/nHRHJB378/QAAAAAAAAUiYNAAAAAAAAAAAAAAAAAAAAAAAAAAAAAAAAAAAAAAAAAAAAAAAAAAAAAAAAAAAAARlrkbQ8I96vk3PTtx9gAAArbyT03jUPcvxdoAAAAAAABSJg0AAAAAAAAAAAAAAAAAAAAAAAAAAAAAAAAAAAAAAAABColAlAlAlAlAlAlAlAlAlAlAlAlAlAlAlAmawaK2AIy1yNlfnz6J5Nz03k7neAAAeQeu8T2wAAAAAAAACkTBoAAAAAAAAAAAAAAAAAAAAAAAAAAAAAAAAAAAAAAABEwZ647FL/lkH6lb8d9E/UUSAAAAAAAAAAAAAImDPXHYAjLXI2R4J77yoPWeTme0iQAAeYem8bM91WwAAAAAAABSJg0AAAAAAAAAAAAAAAAAAAAAAAAAAAAAAAAAAAAAAAAiYMtsdik8uxdcAAAAHDQ9F5tzvAAAAAAAAiYMtsdgCMtaGjAbsBuwG7AbsBuwG7AbsBuwG7AbsBuwG7AbsBuwG7AbsBoz2JAAAAAAAAAAAAAAAAAAAAAAAAAAAAAAAAAAAAAAAAiYMtsdjk3zsbOW5uAAADmppQi9LHUAAAAAAABEjHbHYARIqsKrCqwqsKrCqwqsKrCqwqsKrCqwqsKrCqwqsKrCJAAAAAAAAAAAAAAAAAAAAAAAAAAAAAAAAAAAAAAAABEwZbY7HnO2Tjv2ZmiJAAAOGnbU49d9gAAAAAAABEwZbY7AAAAAAAAAAAAAAAAAAAAAAAAAAAAAAAAAAAAAAAAAAAAAAAAAAAAAAAAAAAACJgy2x2PHewPIw94eV3bgAADz8PXHH2AAAAAAAAAiYMtsdgAAAAAAAAAAAAAAAAAAAAAAAAAAAAAAAAAAAAAAAAAAAAAAAAAAAAAAAAAAABEwZbY7HlR6w8jn98eJt6o5OsAAOHk9keF6+wAAAAAAAAEGW2OwAAAAAAAAAAAAAAAAAAAAAAAAAAAAAAAAAAAAAAAAAAAAAAAAAAAAAAAAAAAAiYMtsdTxLe0PIr7I8W/rgAADj4PbHn+gAAAAAAAAAqZ7ZagAAAAAAAAAAAAAAAAAAAAAAAAAAAAAAAAAAAAAAAAAAAAAAAAAAAAAAAAAAAAFM9hi1GTUZNRk1GTUZNRk1GTUZNRk1GTUZNRk1GTUZNRk1GTWSLAAAAAAAAAAAAAAAAAAAAB/8QAMBAAAQMDAQcFAAICAwEBAAAAAAECAwQREhMFFCAxQEJQECIwMmAVIQZBFiOwJHD/2gAIAQEAAQUC8VcyMjIyMjIyMjIyMjIyMjIyMjIyMjIyMjIyMjIyMjIyMjIv+9URPBWE/eO9KnakVLUJI1TUZbeY95R7XGbUMkRerTn+7d6bTpJ3bWqdjPqqiWg3auTYtbu1TC6ghqtg1DUk2NUrtDq+7927gxS4rUd13d+7d6STqyZK5VR9S7SbUK6p+CrlWJm9OG1OSxVEsrOi7v3bvCd37t3o+oVlRvNmLUqb61XNqc3QTpUN4pZFYR1uq+Opc93R937t3osTFekEbTTZfd4hImIMY2NOJ8bZE02oaTL9H3flLly5cuXLly5cuXLly5cuXLly5cuXLly5cuXLly/G70dM1km+x23mO+8RjVyTjfIjDfI0RlU14lbE5Iqlsr+h7vyfMshZCyFkLIWQshZCyFkLIWQshZCyFkLIWQshZCyFkLIWQshZCyFkLIWQshZCyFhOF3pJTRyu3OMdTMc3dmZRxpEzjlibMx1JE9yUzEFo4XDIWxr0Pd+SUTk6RjHNkY93gO7gd6LKxH6jRsjXmvHfUaIqO43vSNNVlteNSOVsqdF3fknDeW2F0aiaR8hUVVY+NzatybBmdLT9av24HeklPqSNpVaktO5zV2emrujmSU8CU7OKWJJWup1VUo7PjZpt6Lu4rly5cuXLly5cuXLly5cuXLly5cuXLly5cuXLly/jHDeXgl+3A70yS/yZtvqM6Tu4FLGKGKGKGKGKGKGKGKGKGKGKGKGKGKGKGKGKGKGKGKGKGKGKGKGKGKGKGKGKGKGKGKGKHLxbhvKaRYyOfUl+KaTSibVK4Srcsa1yiXt0K/bgd6S0zpJ2U0qMbTSX3eezIJGu452Oe18Lnvjgci9H/vgXmb1Bq+Bb4pw3k+Nsg2JjHfE5qPakEaG7RW0Y+jX7cCjV8Eq2G8PcV0MrqiCqrp9qb/tKSjpZqupfFtSena6v2gsnWN8U4byllSI12Ia8dkqI1FqYmjZWPXie9I2bwzNlYyRN8jEqmLJ0K/bhVpZSyllLKWUspZSyllLKWUspZSyllLKWUspZSyllLKWUspZSyllLKWUspZSyllMeLu8G3xThvJ0aPV1OjhYGukSmbZKCJGxU7IXcSojkSkjQbRsYi0kajKSON3Qr9vG9wtWjFSqY5Uqm4OrImpvbHLvPu4p6nRetSqD6vEZULI/om+KcN5K5EW6Gbb3QyT4HORqarMkqYlRZo0TWZn0K/bxvcLTxuEpo2ybvGJTsRNFgkEaLxPiZIu7xiU8aKyJkfRt8U4byljV6rRXVaTJHUVz+Nbbje1HsSjIqLRForrHRab+hX7eN7jeGZJPGrmPbInwyTtictUyzZUe/o2+KcN5XL34L3+G6el+iX7eN7haRrlSlajYokhb8MsDZXNpGNRsKNl6NvinDeVTT7wbtIhu8+O6S5rTVLm7tOiRwvSXhlZqRpTS5xUT4kWjkUipJGzdCv28b3GbVd6It/hdI1irKxrVmjQa5Hp0TfFOG8vBL9vG/7JaHUXcP73PJ0MOj8L4s5d3kRI6LTGNxb0TfFOG8qmOSRVfUDn1Ax9VeTeVg45Wq6NN4V8UczWubUqRNqNboV+3F/ZZSyllLKWUspZSyllLKWUspZSyllLKWUspZSyllLKWUspZSyllLKWUspZSynLicIt/BOUTxThvLwS/bgUTwacStMDAwMDAwMDAwMDAwMDAwMDAwMDAwMDAwMDAwMDAwMDAwEb4tw3lVSOiR1S5wkirUfDLlp7zIr4p5XNdUTkVRLJN0K/bgd6bYfVwu/wCQxQVdR/kSIfz7XTL/AJBpxVu246N9R/kkVM2CZtTB1X+/yThvLwS/bgd6VNKyqT+LYlS3/HqZqSbOhlG7AptNmxmMG7BgiYxuDeq7vyThvKqqFgHVX9JOizfDM/ShdVuY+TaLmo1bt6JftwO9Lp6Oc1iZJ8LnNYmoy+rGos0bej7vySjeStRxpMEjai/CqI5EijQbExpy6Pu4HekkDnSpSSWWmdg2B28/BURLK3dn2SGW8NG6JvRd35PkZmoahqGoahqGoahqGoahqGoahqGoahqGoahqGoahqGoahqGoahqGoZmYicLvCd35SxYxMSxYsYmJYxLGJiWLFjExMSxiYmJiWMTExMSxiYluJ3pPHNvONYqU6TZfDUI9WPgnI4ZGmjVI2mikZL0Pd+7d4Tu/du9JpJWza8+Lp50TXmvC9Xx8dQ5zGPfUtWN8t9apxp3SrL0Pd+7d4Tu/du9Jp5GzJW2atbY35yS79/2Mr1VkcqyP4aiXQY6skasdS+Q39yNp53yy9D3fu3euKCtRUxQxQwbZEROLmWQxapZC3Rd37t3pJVJHO2sie1KyNV3uJGsqo3rxvfgPmc1zahzndH3fu3ejomOdosskLEN2iNJt+N7EkTQZdsTGdInP92pexmhmhmhmhmhmhmhmhmhmhmhmhmhmhmhmhmhmhmhmhmhmhmhmhmhmhmhmhmhmhmhmhmhlcRP3tjExMTExMTExMTExMTExMTExMTExMTExMTExMTExMTExMS3/AIityyllLKWUspZSyllLKWUspZSyllLKWUspZSyllLKWUspZSyllLKWUspZSyllLKf3x8yyllLKWUspZSyllLKWUspZSyllLKWUspZSyllLKWUspZSyllLKWUspZSyllLKcvyiicvBcl4FE8Gn5NRvLblZJSuodtVEsP/IUkik287W2fW79B1q/bgd6bYr6mDaCbfelOu27S0+3nz7N/nHNlh226WbrP9/knDeU1KyeX+Dp0R+wKRzf4qnvTUzKVvWr9uB3pVbLjqqh2wKNzV2NTuqP4GkwXZVOrYtizM2h1nd+ScN5Okawul/iVUamrGa8Qs0bRFRydCv24HeiyNRyKi/G57WJqsvrRqLPEnR935Jw3lMxz0hp1jl+KdmrC2ne0SnlbHuS36JftwO9JI3PkpodFvxVESyt3Z9khlvDRrC3ou78k4by8Ev24HeE7vyThvKdiuc7eEdjVGL8lSaOPjd9W00qJTxaTejX7cDvSaGR1RjU2WGdWNZJvPwVcbpGaEg2J94qR+HRd35Jw3l4JftwO8J3fknDeVSkqj3zYPmlvA57o/gny0bvjk1KjGJF1eiX7cDvSbWWbVqGtWaoQ1KlkuvUK9k1TpxOkc/hqFexjnVLSN0t9SqxpllWXoe78k4by8Ev24HeE7vyThvKqndCLWm8K6ZtQ7T/kVtx1D1jhSsdqLUStb0a/bgd6TVLoqnf/AOt7XSkrMHMmkkc6uVjIajWfw1EixkVW+V8VRI53R935JRvKxZCyFkLJ8NiyL0ndwOELFkLIorUcjGJGmKFuLn6WTpE5/k+RmahqGoZmoahqGoahqGZqGoZmoZmZqGZqGZqGoZmZmahqGZmZmZkqiJwqf20zNQ1DMzNQzNQ1DM1DUNQ1DUNQ1DUNQzNQzMzUMzUMzM1DM1DMzLqoiflbFixYsWLFixYsWLFixYsWLFixYsWLFixYsWLFixb4LFixYsWLFixYsWLFixYsWLFixYsWLFixYsWLFixb/wARbExMTExMTExMTExMTExMTExMTExMTExMTExMTExMTExMSwi8XMxMTExMTExMTExMTExMTExMTExMTExMTExMTExMTExMTE5cfMxMTExMTExMTExMTExMTExMTExMTExMTExMTExMTExMTE5eLUby8F3cDvCJz4F8I3xThvL/ACOSojdLtqR20P5baLG021KnfNk1bq+h61ftwO9Np1klFt6n2rWRPi2ltGeSPb876WSqq1ni2vWTV0W19qS09PLr0/Vd3B3ErKio2h/KVyke1ayefZm1pmUVPtOrqn7EkqJG9Y3xThvJ8THuZR08ZFsyjgbLs+kqGxQx08fWr9uB3pJSwzD6KnlbFRU0BJsuhlR9BSys3Cl3lKKna1rUY3qu7g7hkTI1fRU8kTtmUb4H7LopGu2dSPljp4oX9Y3xThvKSRIxszHP+J70jYlQxTeW4LVxoIt06FftwO9FkRskcrZfjkkSJN5Ya7UVKyNzei7uDuNdiOjekjPiknbE7eGj6qNglQ1X9E3xThvKWPUI4Eif8UsaSxtpEaJRI1NzZfol+3A70khSR8UWknxTQpO3dEG0iNI6RkSdF3cHcOp8nRs02fFNTNmetKjhKRpFTth6NvinDeTntZ8iqjTNt94ixWViJqMz6FftwO9NRiOHvbGmSX+B72sTWjvrRm8QonRd3B3CPaq/Gr2tFmjaa0d9Rgx7ZE6FvinDeVVTbyjqFz3Q0ixS/C9iSM3N14qN0ItFdYqNY5OhX7cDvSai1ZW0NmLSvs2nVKn4KiJZm7q+yQSXho9JvRd3B3DqJdRNnqU8WjH8M0Oq7cHG6uw3Fb08Og3oW+KcN5eCX7cDvCd3B3eDb4pw3lXUz6gbFPdjZyGFzE0apWQtlSTinar4XtWSRtL/ANfRr9uB3o+nV9QkU6RtjnbIkUrmabs6SN7G8VXEsrN3kGwuvFRuRnRd3B3DqaS6skR6sm+KWHVlWJ6tZSykTNOPom+KUavg+a8DhFv4LkN4e7wbfhvw3Lly/rf0v6XL+ty5f0uXLl/S/ErT3HuPce49x7j3HuPce49x7j3HuPce49x7j3HuPce49x7j3HuPce49x7j3HuPcWUROJWnuPce49x7j3HuPce49x7j3HuPce49x7j3HuPce49x7j3HuPce49x7j3HuPce4txdw507Xas985VHzSMEdJfVnIFkVOGfUyValUvLbKpypNTDoW8KqWMTExMTExMTExMTExMTExMTExMTExMTExMTExMTExMTEscvynd4NvD3eCdyT8n3DqxzFfVubI2rc83lyNfWq1yVaudTTLMnDVVDoZVqVQdVPVYZ3zO6JvCn2GrD/HO2hW4w7RqYVpa6trZKSrqKSBu1a/Cnrq5tR1TuTfya8/BKN4U+xu0Os6CJzFpKdY0iY03eJFZSU8aaMfVu5N/JqhdUMzMzMzMzMzMzMzMzMzMzMzMzMzMzMzMzMzMzMzMzMzMzP7dxJ9hatjY/jWobrNqmuHVjWIybN/Qu5N/KWLFixYsWLFixYsWLFixYsWLFixYsWLFixYsWLFi3Gn2FpGOb8a07Vk3RlnUjHtbGjV6F3Jv7xPsNmY9NRuWSCTsVnwLMxHpOxxvEY2Zj3dC7k394n25m5f06hyGUqRv3NbfAtN/wDQlI5Eko1lYyPB3Qu5N/eJ9vW6Xvf4boZIZIZIvRO5N/eJ9jdZkY6CYfTvyp41jZ8Dqd+9NpZWtkpJHsihwk6F3Jv5W5cv6XLly/pf0uX9Lly5cuXLly/pcv6X9Ll/S/Gn28E7k38mpYsWLFixYsWMSxYsWLFixYsWLFixYsWLFixYsYlixy4k+w11QxFdUK+PVyj1Cmc96cdQ17nxxSqvRu5N/JrzFciKX8A3hT7eCdyb+T7ip/jt4Sq2lHTy1z4KinrK2pf1zeFPsJVS4STOQ1JVmbO5R1W9I+OV0qSPqHXbNNI3oncm/k+4VqL6I1EEaide3h7vBO5J+T7hZ0a+KTVj+KapbC9arEfVowbUZv6JvCqF1QzUzUzUzUzUzUzUzUzUzUzUzUzUzUzUzUzUzUzUzUzUzUzUzUzUzUzUzUzUzUzUzUzX8r3C07HKxqRt+KSFkq7swSmjRWQMi6NvHYsWLFixYsWLFixYsWLFixYsWLFixYsWLFixYsW/K9xrsNVhvEY2Vj3/AAPmZG7eIx1VEwSoYr+ib+87haRFVtKjZG02LYYNFfgmpkmetLc3RCKnSHo2/vO4R7Vcqono17X/AAq9rVdLG0SRjndG3953D6R7h1GqvbSKLRyKx1M5SJmnHxVECzObSOajInMm6Nv7zu8G3953D4XI9rZmqyOUSKqRWpVoNbOslM1zIeGWJZJVZIrGU8xEzCPom/vO7wbf3ncOkmar5ahJGyzuFdIjXz1GcU8yv4pHqyZzn2izWbo2/vF8Gv8AQ394p/aGTjJxk4ycZOMnGTjJxk4ycZOMnGTjJxk4ycZOMnGTjJxk4ycZOMnGTjJxk4ycZOMnGTjJxk4/tf8A8BsW4retvS3rb0twWLelvSxb0t43/8QAFBEBAAAAAAAAAAAAAAAAAAAAwP/aAAgBAwEBPwEYh//EABQRAQAAAAAAAAAAAAAAAAAAAMD/2gAIAQIBAT8BGIf/xABGEAABAwMBBAUICAUBBwUAAAABAAIRAxIxIRMiQVEEMmFx0RAgMEBCYIGRFCNQcKGx4fAFM1JiwXIVJICCkrDxJURTstL/2gAIAQEABj8C/wCGsUHMrVKtl8UqRfohrBPA5V17Y5yvo8/WbPafCULXAzjVdYZjKDZEnh64ff5tdlDpdWl9Hsno1ZrDN08XBdIrP6IHF/SujuaXRNgDb/8AK6NTqdBFej9I6Q9lBtvVhuAdFZsv/bxZeMba7Z/9OnJdI6czo46HZXp1OjdHJAkxDhp/UCqDTTf0lv0Ww2bPSqSS529iZyEXVGVas1KTmVgae6GgZJ3uBxz9cP3ATGo8guExj14+/wBZp7MfjKZuCSdd7u8VWdLGBhgGVs9IE8c48fQtLdJdCO8J2bHW8pyVTipm7MawhLrXB4adPUz90B9/hSt0IGvfPgmkscS5xbA7J8F/LP8AMs71oDbEz8vFMhhhwcZ5QrmggdvnssAJc6NSrWASWXCXfvmqYLBvMDuOnqh9/ry0Xc0IYBBkKbRJ1X8tvyTYaN3ChgDR58PaHDtWjQmm0S3QeqH3+ax3FOOuh5d3inC7Gh0Tt7RoklSPQNu4mEdHaMvW41x59n7hAtMguDdE5rZls/nHqR9/rntl3NZd8+7wCLXSZdd8VdrNtvwQa3A9AWP6pRcW7xyVuyO4rebOkfv5IlvHPqR91Wtc4Av0aCcpzWuBczrCcfZFhO8hrM4RjgYUXie/98kN4b2NcrTXz5d+SJnq5Td7V0wO5SyflHqZ91Av4b0lwcaNGuTULWzaCxwn5ldO6X0eo+hQrdKZDiHsvaKcZGrRPFdHJd0jo9M9H3C577tpcf6W72kQDlfxWrU6VXpvYGBlodaPq2yQ3vlVb9pDakBzqhqB2g6pOsfYt18CBw5f+VF4692FUsdq5wI/tRex5byHL96/NMtggZ17T4q0GfPAdzBT4cA1xBiMER4IPLzcDP4/qo7SfmfUz7qD7KidfSxcJCG8Nca+qHztfc4JtrQ6XRmE5oGg4/GPRvfE2iUzcySDriEHBgmW6Xc/gqsU9adx1dwC3tD6yKjXACB/nxTQahmd7enT9hOvqEgunrcNURtPZzd2DwVI3dXMu9ALIkOB1VQuawhzAOsqbqkEtu9UPn7LbU9r/RcJ+XuaELxMGUXNbBOfRlrhIOU2G9XCizRHdGog+4I8n8RJp0vo56dTD6pbNSnu09QnUqnSNm416jDT2hkU9Y3bdOBulV6kvY7owp9Hqf6rvrH/AChdFpfTHGi/pLm30ahdu7OYvLROvFU/pdapDuj12NJHWqNqQ34wqIPSNk7ZUDSveRtCQJ3Q03a+5ATZBNxgJ9xgNMFaGdJwm73Wxot50KGmT55c7ATW6y4kD4IWNcSeCdkkTp3GEGCdcH4T6zlZKyVkrJWSslZKyVkrJWSslZKyVkrJWSslZKyVkrJWSslZKyVkrJWSslZKyfPHueE0u9kyE/fdvEH5LaHMQhJJiPwUa/uPBEs4+eQdQU3JtiDKAp3MjkhM8fzlBzJBH5cvcAeSrcN2mY0VrZk8/j4Kk5+he2e79ypJ/wDOvgninvOa2VTbbq/PZofDz2Nibv08URYJvtG92SnEMuAa0iDmUwNaLXXa3cjH28EAeKyrZE8llZ9BLtAg24SdApDkSXCBP4Ky7e9wB5HSOtnVXga/vxTd3q41Ts6uu5ap2d7OqaY1bjXzwXiYR0OpnrHKkN5DPLCFjYtx9vBMLXBpaeIlVSXg39nb3pwLhvUtmTahD4AcTEdqAu07u/x9A5rsEQmE1Dc3XHGZKbs6mreLhPBTeRqSfnKY68ut017vcAeQjURKDQ4SW3fBSw3D0QDp1TiJNrrTA4pzQDu5+3x5NPM09Dn3CHkO87X8EGybQyyOYUN9EC4nQRHP9wjBdrE68jKfUB1fn7fCYD1RMp1p0Lpi8/1Er+ZvxE3f2+KY67URMmdLp8FrUggDDz2fqnWuiT/Wdd6UHPcSGsA6/HXznN5hU3ksubqe8nX8E2QypEaHuUXNh10g8i6Ux9Rwdb4RPuAPIWg7wyPLp6EBxAnCuc4BvNGXjQSVLTI+3h7ojyPJqdfOny/JdYRrw7/FBz3Aumcf6f8A8p8RBdOg9Cx8ndB4oQ9u68ubpznxWlQndtx3eCA5D7eCYKTi3MmcKro4D2dO1S1rupMaZTdoI1GMZ1R1eS64aNEjl6BwYYdGhVJ8GJlwu58PgE3b7Rw4w48lAmHXcYje59yY6rIHHXs+2tfdUfdAE0h0DiBk9yrhu7s+PxRbc2ywFv4+ids+vGipEA2OMnTgdAm7Z5pgxLiByUDjcGkD+6PyTJBa05BHZ6z0d3RelbJtWsykW7MOzxQ6JWcKjm1G0XVL2gl5/s5arpdFjAyvTo1Xs+sa/qcwML+HtBqNa8OdXL6Dm4pk8Qi/pHRKlKaO2pguG+3T5HULpDXUydi6mJugb3M8AqN9NoqVKZqWmuwaTwM6qlWpasqNDm9x9bPuoPsqltJ+rqNqCOYTq1OtXphz9o+m18Nc5W7Wu5gZUpsYXCGh+Y0XRtpJHRwQ0c5bbr8E9lV9as00di29/UZyHyHyVUjpXStrVtLqm03t34QmDo9WvQc0OBexwlwcZM6c0GidBxM+tn3UCbaJlPsEW8+OsI0g12ntRp6Ko/8ApaSmNc3rRrEZKbFObmXIHn61nyS8ho7UNc+hl5DR2qLhI1iUN9uuNcreqNE9vqZ91d4Ap243ezplSGiYiY9FB1BWjG/JbrGjuHrdwi3T8EwX6NPA93YqsRc88XcEapiO/u8PQttyDOYUbv8ALY2e7sTbrTF3HmrbgReCO71M+6uFgrBWCsFYKwVgrBWCsFYKwVgrBWCsFYKwVgrBWCsFYKwVgrBWCsFYKwVgrBWn2Uff4PpasgAie9aEjPLloqm2Ok6eiBo6vaZATgzVttg3vx/NfWNLtNIPVMn9EBkiHZjAGiqGpgzHzPqR+6A+/wANmxzmAa9v70Rzqc2Hk3T809wAIvtG6fmnC0dSRunKDnCD3R6C9gLrTq0cU4bx3LQY9rn+a+tLxppu8ZP6IbhLgQ428oCqbWbdbZ/1H1I/dAff4spgEBoJ07/BC5m9x17vFHc4wNe0+Cc1zN3I+Q8VaGaTmf7oTZZLjy7gf8p4tgNMTPnB56oO8nAtEhnL2v2Vra2BOozqfBAlkaif9MCT+KqNcBDZ/Mj/AB6kff8AwFBAWAsBRaI7loPQYCx6mff4UyOE57/BSD+/2UQ2XEGNP32K6dIn8vFMDfax6AdpATwGXWtuzlUwGtIdOt3L4eqH3+lzZP78U0RIaZElaDjOV1eEJud3GvoIdjvROskR1ihAx92en/a9uhBnSD0ZlWqWveGXGLCcR2Kk1tL6ZWqbR1N38u6k0xd8ZRq9F6M+tTp0BWrb0FgM/M6FOFHohq0xWbRD9oBLnNBH5ovNPZPbUdTe2ZgtMfYppUKtam0dF2kUuj7STJzotp9H24pdHZW6S+m/RsidOaJbQLuitrig6td7RjhykhdMIJdV6NSqurVWwLCC60d8BFv0ZxosrsoPq3jLg2NP+ZdH/wB1I6P0is6lTq38rtY/5fXT7qBdHqvm6g4uZ8iP8puydWolheWmm+LQ4yR3JrGbSkzZCk5rHxewcCnGDrXbXz7QAA/JPFL26jqh7yZ+xdvta9GpZs5pPt0mUGN2lOlsxScxj4D2jgVtZqQagqmlduF44wiwB7Q6m+k6HdZrpP8AlVBvRUrMrHX2m2x/9QqNTcZ0ejWdVbbWcZkH2Ihuefrp91At9wbPMqOPo5cYATd9u9jXK/mMzHWW89o7ypaZHrIaXC48JRjhn0cvcGjtKIvbIEnVD6xuuNcoTUYJxvepn3UCbZGjgdU95I3vH0dRg0ubCZqIDnE680Gy0wWceSrQ7So14+J9aBaQBY5s8dU6Y1M6dw9G0DgZzCiWxYxs93Ym3EGLuPNW3SLw71M+6g9zD7qBMNm0YJlqfIdaXCA09vgu3ZxM+1HiqJDX6EzJCDW3XGoRqZ0PH0B0u7OaoQItDA8T26p26BLjjv8AW9oyIAH+f0Xtdmo7M/iqgqTUnAkdn6q4zYJjXu/X0LQ0TvdiO5vbNgJnPNU5pRF2I05INrAOteInl6mfdQe5h91AmCgYzqukf2yGgMMlVbG4bLBYdUDUz6Gps+vaY70wOnVp5u170LBUcdCZHHiPyVQkut4T60dmYYGj/KALZPOzOg/VO3eOm7jU/onbpLcjTsC0Zuf6D/V4Jgtk8yw8gql/VBgbseddTBcWnqjinAB53LQe3n+a+t2g00gcZP6IbrrhDjHKBoqm1ut1ie8+pH3UHuYfdQIW29Vx149iq2NbLIy7thGk0Qf6l0d1QtmoJ004Sh9Vqf7u/wAPQPe3IHFNboRdDnBvbATZLd6q5uOU9vZ62GexAPbx8F1B/wBXd4qsTANMnjHFVN2Wt4z2A/5VLqhr57cIG0P6/tcini2LTH4+cyHNbc6Jd3ICLJZpu+1lUQ4t3mBx0/X1Q+8evrcrCwoKhuFj3ywsLCwsLCwsLCwsLCwsLCwsLCwsLCwsLCwsLCwsLCwsLC5egwsLCwsLCwsLCwsLCwsLCwsLCwsLCwsLCwsLCwsLCwsLH/a9/wCHnobnCoKzn2g9e1hdb8YT/wCI9Hc6p0JnRK2yZOj7LST83R8EW1GU73VKIY91O0b7oOlxVLo3Sdk4/SqlB7mtiYp3g57VTr1LZcXdXGjiPsWjX2hHRadBortnSHOIu+BhdMr7z39KqUNixwkU2uujSeQHxXR+j/VUar31Wl76c6NiDbd281WquFJrmfw76R/zy4fLRVth0jZXdN6O3UXDept7UQ2l/u30l1DqcuN0/hGFTqX9FBqdCPSh9UdIjTrdqpVYi9gd62fNHk/iA6I3pR6QzpTBTqitFOmLWZF2vHgjDqDdp013RaW4d2C7U664VPobXUGVtpVa+sWEtNkYE/3c+BQvcx0dDqV7iZ1Dz+Cc5r+jUadHY3ioDv3NBzOmdF0z6VWFW3pVRjd2Ig+5ATHPaC5hlp5JgZQptDAWtAbgHKto9Fo0xcHbrANRhObX6PSqNc+8hzJl3NCnRY2mwYDRH2K/a0mPvZY64ZbyVRtShTcKgAeC3MYVPY0KdPZzZa3E5VMVeiUHimIZNMaKoyp0em5lSC8FuYwvpP0el9I/+SzVBraFMBtPZgW+zy7kGsENGgHrZ80eR5Y0NLzc4gZKfSfRpupPdc5pboTmUyg7otE0WGWssEBU21OiUXNpzYCwbqp1XdGpGpTix1glsKo+lTax9Uy8gdb3ICEzqY0RY0y4Z9G57sNElNid4kYQfDoJEaJ+TZMwOWVPrLWGZIlO2ZuAMT6MF068kcxaHTHNNBDt7sTXNucDyHqZ80eRzTpbklBzcH0bQ6d7s/fNHrSHW44p10i0AnTmg0XSZ4cvt4Ju8WwZ0RcHEz4z6N7DhwhMhzoaSY01laVH+zy4J5k77XNPx9aDi49UtjvR3i6TMnu9GA7gZXXdFrW/LCbD3aXcuKhpMXXepnzR5HkvdvW/CEGgzHP0bHOJ3f3/AITpe7V13DlC6ziIaI/0plpO6CNe0/bwW84DvPpJOii4T3q7aMt53KS9sDtVlwu5T6zaXC7lPkl7g0cygJzj0MvcGjtKIvbIEnXgh9Y3XGuUCarION71M+aPJAcCfSbxA4o3PaIMZ4qL2z3rrDjxUscHDsP26Fo60gEBVC543uzv8VddIA9E5pw4QqbjU3ma44zqm2PDnNHtdy68STP/AFSmOL7rfCPWdpdadI/fzQBcJHZ3eCqi4b2PmT/lGqSPl3eHoWgGIM5hRcIsaMck25wMXfirbpF4cNPUz5o8j3NeN6dI7U36zUCJjuVp/D0VMzFp17R+wF/NOpuMc9fFFkgMJB0+Hgp2mJgfPxRE3a5+3R7mHzR7oN2ZiGulOvcYLuHKUBV3xG9rnd8V0eWkWMtIB46KC83d8cv1T9p1eEnz6jW5c0gKi40uqTMxorTTEB7SLont9bv9kBsc+KZvOujWXYOn4Jz9Tj2s58QntqE3FkA3aY8VROz6rTqTMJ+1mXGdTPAee0NE73Z/lHc3tmwEzmMhU5pARdy05INqhr7XiJ5epnzR5K72mHmbY+CFl3UIuceKpW3NHtSZ5dvf6KmTFrQf8INdTuDajiRPWGqdtYeHMtPwx/n5prQAIHD7ej3RHuhlZWVlZWVlZWVlZWVlZWVlZWVlZWVlZWVlZWVlZWVlZWVr6DKysrKysrKysrKysrKysrKysrKysrKysrKysrKysrKysrXzh5HmmHHU5mMj/Epu7dLeAOVStJ3usTTTou1qQNw4tVTaXDdBENwmWtPUGlvFO2uZ007POZs5h26Y4dv5o7j9XXDWNIOn5I61DVlsaGI0Q3XQLgfx/RHbTM8e77jh90A8lQm02hxt5R4prSG8yA6Z0OPkqcMbLzHXVUtcx9tUNzgaKoAwG3+7u8Uw6CWvNnEwU8m3R0C0zwHnUmtje8R4p/1jSBUtnlpKdsnNJtYWtP8AcVTIMMdeYjkfWqfShU/9aNcA7+/ffqyOUcOSc49JZTbU6e7ozTsx9W0E69+kKpToVdqa3TqjTVZZwaMXGExlSqym0dF2jwwB1+8Rn4KlWbWc8U/4NTqto8HGCi3aNkvoBr3bMnffB0a46KiK3SG1WfTXdFcNnEi0me/T7mttsqe2/rt1+acx1NhY7rNLdCtkaFM0v6LBC3WNGluOHJMIpMmmIZu9Uditp0KbBN0BgGvNdRvWuxx5+tn3WwsLCwsLCwsLCwsLCwsLCwsLCwsLCwsLCwsLCwsLCwsLHoXPcHNtn4x6TZa3Jm67fE8NFL2uaLrUW2OECZ9SPv8Alpc7Wfxz6TaaymiXbqc15c4EkokcQB6kff8AlrlbOsSsprp3XY9DZO9yTYPWxoutGsajii1p1HZ6kff9t7g62Mt4CfFO38mcf3Sg4W6MDRpj9yqUvBsj2eRn0O2u+EdiZ9Z1QAdMwi1z/aLhDcImcgD1I/cDE6+jyFkKARPqR9/xBAeA0aOPAKtv9bq755r6uB9UWhxdrKIdxcTmfQ7XdLf0VKLAWtAPZr3IgWNdtC8apzoGoA9SP3QH3V1+yiGB91okHXeg/ongAhsiMf1eCBql+tMfPiujzeAJDhCcanA2jt7fQO2e0/lOiHaSmbW+RU138iPH1Q+6wBIBOPJHH3IPuoPJ/Ff9t7P6Rd9TtOts7RGz+M44rpL316m16J0Kk7Z2g75abidJ4SunVehdN+mRQ6O3b7u6DUdONOK6NQHTtyp0lzNrTLHut2RdExGfsaQA7cE6cYMrpGzcLmAEI2n6sCZ4YXRzULRtDgdyDgGkkwR/T3+gqWza2nI79UzZu0gY9ozqndZhvbGnsk+pn3UHkEjHk0AC0AEfc2PI8OBAbGveg/E+jY1w6/6eKdLdQ63PZKcbCWgNMjjKa1rZBu1nkY9awsLCwsLCwsLCwsLCwsLCwsLCwsLCwsLCwsLCwsLCwsLC191B5HEzLonePBBrcD0YLxjtR62rruscrQHgM8sJtgi2Y+P3HjydYDP4Ib7ddcpsOuuMC3XVOawgluY9C1rzBdjT980c6G3qnKdcSLYJ3SgwTJn2Tw+48eRxuzMaYn/wmvvc4gRr++1UWtdGy7M6QjDp0A9CxxMW/p4Iy/Uuux2QtXEthog/2pkEm0H8T9x48haHC4ZCE8ceTccHdx9CA5wBONVvPaNY1KhrgTyn7kB5HwRh9vxKBYQ0DHZofFUw+CGmTqouaNA38/FVLbQXgaoNPniCAIIP4eCfvzeQ46cZkqq72Xmc9g8PuQH3QDyVH0hBNuO/VBxucbCIu0lUnVBc5rz8oWYufcYd++xb0nTXUdn6oFxIbyn/AFfomtqTcMyfOpnS1szI7kA6mSG1HEiRvDX9E7aw4OZadf32prYiB9x4+6AeSoW3EgO0t07E0AXRro066H9FT0AuJk2FVbHP0qjrM9nRVLGaDG6ez9VTD26GZhp7fPp9awgzDZ5KrBqaVP6TiO5EuvtsBg89f+DHTyYWFhYWFhYWFhYWFhYWFhYWFhYWFhYWFhYWFhYWFhY8mv3l/wD/xAAsEAACAQIEBAcBAQEBAQAAAAABEQAhMUFRYXEgQJGhEDBQYIGx8cHR8OGw/9oACAEBAAE/IfSyRIkSJEiRIkSJEiRIkSJEiRIkSJEiRIkSJEiRIngfvwlMQ38FFFFFFFFFFFFFFFFFFFFFFFFFFFFFFFFC9qGF78sghousQdMrWDnAR2rHaKGohhCnTMwtN7wQQLAZwrMLRqyhOgrTVPOd178tgiOxXlSGwUKO+k10G8gJGMIblRQTQSBe6FRGnbWZ9+H1lChkIDIZAQlgjyI6i0xBpMSlQzNkrQGvOB3PflsHiSAQGwcvCnFjYWPPDue/LYIuzVQNyz/ARNHOAAUCLHYmFxcu6g4gxXlZsVBPbyRexUCVkc4au+hC8kTFC8IGBDTUYsIXgLfewC678mO578tg9DHc9+WwQZnIGunwLqxlBLYIYO5qgbVOgxgbFYAF9kZAwJX0QYAJoSFQAgj5hq0Po/7xqyXaAsT/ACBEtIsRAo/AQWg5RJDqv85Qdz35bBAImIQMV/6svWqlYm5lbWTFYyqTUIWz/gJRzqpFneaJ4A46kQaBwJIIsIYpTDENVhyg7ntR+hAAAAAB8VsEPgQRJeAWfQ9DCAR6ADs0J7US+BJoB3ylEsgBQCd9jAgYjmF5GQlZlSEwIACzDLeo6zBXDRUMjOt1nClBAUNSHAfAQC1gX8ckO57TM7ZpTSmlNKaU0ppTSmlNKaU0ppTSmlNKaU0ppTSmlNKaU0ppTSmlNKaU0ppTSmlDlpCzvw2wSzcAaAHTuZmEOJNZySTwXdVFSCUCwilHa8gBLuStKdQ0S2pCINmswMlbVMGJDEwoA96IP8gvdepP9PJDue07ZbhhfFAJpoZ0BhR+AAYmQw8qegnhWwQLVIApZtV+DMOIGiBblYTcMKsejTfL/UIa/wDtFBjMBanG+5AYFCNfiYXBLDSj/ogQDIAs4qQgIQBILOob8mO57Ts8E2cUiikBgiB0E+gogQuBJZLy7EKnADACGEEeZDSidWyK0ZY3VwMHudXXn4cFsEOetBQqZEguB8DFDJM4AZ6QKILViVAT2lShCAKAgIApK7CQxOzqHWA1rVBYk5cdpIdIXEigbtAq9EBQFSCDYmmtEaO314f7yY7nE/QgAAAAA/S7PRVDgtgiabS6+YwLwgIkDIdoDEA/5HKDucJKBvQgAAAAAAAAAABFwtAfSrPBAzQVdJ/ECZwO/Egi+vLxPdc1GRQH03UwWmkIikCpQGgeqAABKUhlTtjDIEGIAXyX0wcFsEFRAUsRf8J3mboI2paoK/0ZdwUHr8FLjO0NGKohNryzIvWMoIa9oXghp5ADcokhQuI4n3BYJOWsJZW3yaYDlB3uGy8/D4OfqvZizwQALAbwAq7DGr8sQAJAcRCBBBInQTLYAYFAnC0cTLjULglkdTyf0wcAxorcehABmZuE9zwGOG2gdLFKwAXDjRMCtCLsICOTsxypQtFFMmVEj0UPIBsEMb8tJMWBhxoDEtxHczA1C5wy30qzwSSQQAgYPEjKFkqiHVf7AYikHorJzAJQQJC9oOdEUWC8P9EMRwXXHaG2dptEdR3SiB5Apohu67whoIFxvgPk2jtFNhV/hyX0wcC8DUdZ+9P3p+9P3p+9P3p+9P3p+9P3p+9P3p+9P3p+9P3p+9P3p+9P3p+9P3p+9P3p+9P3p+9P3p+9P3p+9P3IM1TAOE9z0My30qzwQpGewKFCNWLUwKmkrkNlQU+4CBGEEnMxDKuDr/zDAjIvgN734xFoIiWaQWKqFvcm8N5Qolov5CaSRJO7ufMEpQQXkXw5L6YPTT3PClGARYkkrBa5wbA8glHgPVFIIJRXB/iNYuv4b1R4gQVoGgP9EAnDqgsMQV4wDysbtUIPmTyDGJplvCCIr2y8gKmkKyiIXlhFrnyRlvpVngiAI2axTopetow6KGWwlqitqzQdfIIiAFyZiAiDMi8AWQbULNHaBagEToSPQyiQ1h8P65L6YPTT3PAw2WYsj8TaMB0BrXeqUwszFLU2oKQYFnmW3RCY0AtphwJaQAmwa+zxvUranTrYR2JbNShMF0lJCiGSJ0aRJAIEJgyzydvpVngiXhHEUIzGcI4CLnRERbVpHMCIqo3r3tG6QnBZHPVSlRTBw/gR5GqkcWxhGZpZK1D5hBsIAE5GdqfEDVAoBd/3gnMAIFEEHzryX0wemnueAMbmBFCij9wiEg/qJPzAfKtThLAoACAz1EAGD6cIMDNBEUBQK7jlLfSrPBEBcqALjHgx4ALjHkMSk0WbjGcRp15OHpp7ngeTXEi1xBOGgu5VlgqPkp9R9nVkkAPoPKCssIEgJBR6IHMRC7NR1MLgYwQyAyeHJmW+lWeCaISFIdQsZdtolG/gUIlfXnhWD/UcSBILNAiEAYULFEXduqKTZCVcdCjFM4OXCqrcYsbjpxNspweWsJDx1Il4j8AKSlsWIgbcsK11jmokLAoAATYoawiyQFYr/oNeS+mD009zwACSnMD8Q3gcPJNDcbGV8YmNH/wlBlVSwNjB8Y9iOSMt9Ks9EX0wemnveBTRepEi47BFxCsqsO0afzCYAmxLs/5eCQDoaBqXXyQkgKIEG1/kABiDdg1gxksDQgkgH0mJ6ByRlvpVngsJAkxZQ0vCSoIh0JueGIAzvASwQfCMWqTX/IbUyCAFidjIiuKCALndSvkM+RaRwlEMGuA1uuQF0gK49bd2/gxoZgRUQkdWZQymUAQSb4NJ/wA5OHCybRaJsTYmxNibE2JsTYmxNibE2JsTYmxNibE2JsTYmxNibE2JsTYmxNibE2JsTVEZ4gMoHd6EmgvB9Ks9EX0wcBwEPQ7lwmM9CAAAAACPS7PBLDDoNlgWdJUxQIADMCD00vDxIQICpLavwPKIT2iI5mAwrSM3/qYu4CYBfkkT9SoFe8DRRWjGKKMWAGsjNv6PJfTBwWwS143I9WMFGR5GKhnYrCBdNeYYw1awAKvDqkkWIwgxJtwqgbWLUKnCJhfoksKpMeQACAKVUMqih4m6zAx982O97Ts9EX0wcFsEHhjXZV2HpFqrRkADNHgGAUcRHlgKAbc+S4bQUAaAQhmqjR9VomVUAbhZogVsFJqloVqEoAaRcozJcTQBQJ4QEAWOpvzY7ntOzwVLpvcGpwGjd4Y1kyNYAOxhSNkbAp3+fKOBDKnYQHY0QypKR0BiNiDdYkUHUgTRk+T+mDgtgiiiD38NUEEpVBHUNfJ1QQSlbTzXAM4KSfS9EHAgrCRD5Mdz2nbLMy5FUT+IfVAUSKLiy8ojCAEQcYEACARCGanNgXgABCg5M128NsEc1ldSDUf9jPQinVO40OV5QozUxVPKCmSIFVMMUbVdfJFBrFuA4jeVzmNwJk1SxcIOaAku6qYRzgdGACnJjue0yJU2KiLmiQSCQSCQSCQSCQSCQSCQSCQSCQSCQSCQSCQSCQSCQSCQSCQWBI2I6zO4bYPQx3PahEWLEiRYsWJEixIsSJFixYkSJFiRIkSLEiRIkWJE8C4bYInxsY2JP66whWwx30VXxcBdGxQVzZHJeUEJIUUDgX8EwI1hWVUARDfuhICzjAmTqbVS9ooCD23iEMWLylBI5IdatbpckO578tg9DHc9+WwTD8NARFrWh7jCROSEWgGF6tDAMZiIDNWuFoaHDjgBBc9YZwS4P0eQDFACBULf2BGBBCCIAHV0KgiQG2UM7AlZaM4RsCABsTEVVyYLktQXFDClFnhyQ7nvy2D0Mdz35bBGSRrOWq6QVCQNcIB06aSi3ilZ0KoUvzlIILtCmEbiCCPUJtI/BuSDtL5O8NJ3vWdvniwRX4H/ANUGsZ6RSCRr/gw0W10UCvQ0O95XLMFNNUHAUAyIKwmNejkh3PflsEQcJ0zIsUxhYSBuCITipPiAdhfE1xNZo1QGWVxEAEaiE1wITASYiopNJ0gEWAHJDue/LYIAJYRuRyZCHDI0G9Kb0QulAwua/wCoTBU6i0L+IVokvgwYP1h5C5p91MpvXRUxOC0lZFIDpi/4uUHc9+WwVEQpRrs/9dYB42GFH5hF/IkDt8mXu8NkB9ASuEEcQz5C/ksDQhX4liqDOEPmWj1oks1vylR7+/AgOkgkeHv9Jv8ASb/Sb/Sb/Sb/AEm/0m/0m/0m/wBJv9Jv9Jv9Jv8ASb/Sb/Sb/Sb/AEm/0m/0m/0m/wBJv9Jv9Jv9Jv8ASb/Sb/Sb/Sb/AEm/0m/0htdcV79LRIsWLFixYsWLFixYsWLFixYsWLFixYsWLFixYsSD/wCIqOSbE1BNQTUE1BNQTUE1BNQTUE1BNQTUE1BNQTUE1BNQTUE1BNQTUE1BNQTUE1BNQTUE1BNQTUE1BNQSiAvhMZsmoJqCagmoJqCagmoJqCagmoJqCagmoJqCagmoJqCagmoJqCagmoJqCagmoJqCagmoJqCagmoJqCaglbvalExvSE6QEPQ7l7TtlmBfWrEASIsQj+7skSBsUoIKEw9MlpAPgoEDVWwBHCmO+JTUQq429DrYIiPaGabEQlBwIBRy20TBAmkhQ4DPQnCqtJIgIIIPwISfarI4XRcAoKRBUiRLA2XOjve07PBWKXRxJr+ChCHpMonuDUR1yaFxZ9zW9TKNC8Ao6cIaRuycTnnc899MHBbBBo6zVK0PyYMVpZZ+bciGpgEBUC16DpDb0OhLIDsSWUIMf8LopHutyhqgVw5Rc6O57Ts8ErrRCg5jdrWnlnYgTJNhAag2j6IQBlVxL5QQSHDZCLXgwASxBfJfTBwWwQFXWB1H4hUCZNaPL1kIiJsAC0GcC0F0vRApDLhAPkx3PadngsYWWyhvSqouajXZryykTGbcRTZVI7ut4ucUDAVg/DVpZGgMi36Lk/pg4LYIO4sgFKjpCipI0tsfzyyIo45gOI3lc8AmYmTXIXHlMAsiapSiAClgBbkx3Padnoi+mDgtg9DHc9p2eCOjJDeiNfnrHRGxDTvHFMoM1YQRRXuwlhKo4gI67QoLiNyFfCh8gWE2v/CFirVDBjp8QYzJdGDLtyn0wcFsEHaKxmD/ADVoF6hU1MBSHMH3iC5TGAHdFNwEFJAKlbjyRGSsQAVEc6TEVAEKgaW3UUcagpGgKjqyghisidof/acmO57Ts9EX0wcFsHoY7ntOzwRssZqZAUo6HGHHVMBEGV/iAMDXFSs96KAZAMmwIo6UPkkB2wW9FIHiiyAKgmks3AkgoCaioT9oG0RCnS1eT+mDgtggPYjvi2ACqbQLgsyqzpU1aQej2E9Cfmg6o8ksEAyAQ4dbfMX3xxYmH8GD4CAja2CL3dZSMDwsR1ZvxBA4CcDb+v4hgY0EUIgHVVh8CIgdQpTkiQMBdR3iGGIhuDqlckxMAbJEUsKUX3yQ7ntOz0VQ4LYPQx3Padngq6hYjcEg6wxQwtVA1lhRIwCiANQsDbEfMHIDboSLygZFLA/8L1+QlwFkYJiUxAQiwMqvpCSeWIVDV5Q+nhtgg4AFoE6sNdGBmJmWcGhUKqaaaGBLVELCAVqHL7iIoJ1VkIP4TGQjcwNL7QDSSWVtLKKNJmd0Q/nEFvkCYAY56SwkiRIigEHjQ9jLTZpb4f8ADyg7ntO2HJA3FpeoK3ii0HaOTApaE1wPIId4mUNoB5Q12cQmBEdFZaopakN4Bh6CmhUDRpibu9TAGwdIgJIFTxEC4OIRyKDFuUrI+0zCCbEb9zdm7N2b83Zuzdm7N2bs35uzdm/N2b835uzfm7N+bs3Zvzfm/N2bs35vzfm/MAIVwhHYqJvzdm7N+b83Zvzdm7N+bs3Zuzdm7N2bs3Zuzfm7N+b83Zvzdm/N+bs35uzfm/DSgIRA9qEcT14fXh9fK/6+T/LiI4vrw+vD68Prw+vD6/8Awec444444444444444444444444444444444/IcccccccccccccccccccccccccccccccccfkOOOOOOOOOOOOOOOOOOOOOOOOOOOOOOOOP0wxkmk3TdN03TdN03TdN03TdN03TdN03TdN03TdN03TdN03TdN03TdN03TcZujCxcZwmVsoJum6bpum6bpum6bpum6bpum6bpum6bpum6bpum6bpum6bpum6bpum6boQYB4SYAdAm6bpum6bpum6bpum6bpum6bpum6bpum6bpum6bpum6bpum6bpum6bpulb6iD0qiWPQzThFSCg9DoIcNRA9DNRCfpVksylKkJSR9CLMpaHafkitQZvYYiSmBYjZCkIIgABJGw1Mp1P0AHYc/DgtghKHQaNKvknKXzjBlVq2lKoCj0TQGhQagQYVRBFUpQvkw/uJCgDAASjNRBlSBoKEBhrWHEMYDz8VvYo4mKsmHzY7nCe54HsoHexFsrQ8ZUDwmA6zkqCrBUuOJ5bqUdSgMa5/YRcmqQDOQHGNraaCzCdQQUyVc05230qzwRHuihUyCCR8EwMCjCAawAyKrDYoliobL4wyiyqsAhNqhHAiogMs03576YOC2CGyM0JOs0goTASBsHbCDQEWANJvCtQCMU3AyhwWAUgwAI7ACfUQwq+0NIIICBp9IUg9AoAFAObHc4T3PCh/uikAzqgOkJXACEksQzdYyE5u8wPmV9GrBrrKBl+BkFi2i78Pglmc+cMt9Ks8EFMSUCOpgH4LAYV8ukCZsQoIUhlIu+kwQ4T1dvuBieYxU/0IqQh58l9MHBbBBxMgKohf7g8gsgFiwP8AfLbAZBHM8jABFihEAIEh2qMpEANuQ1yY7nCe54EjSsGgFbVhc3aPl1I1ibED7CVxVgXlHT4lh4w1EIDoqA2VI9+SMt9Ks8EmFF2qreVxEoUgy/ryyNkFmsjMiJBOhrgoqCVJrZwhMk0Ac7J35P6YOC2CBRQCBSIR64QYrDiMgw28s8ZAwAP2JdFsBSjsrXcIqBaAQuzhDhiFXiAP85MdzhPc8B5aCl1hUgzIGK7yw5hdJYkHKllo8FG6BLAtZQI1rOpVMYQYBCproJ+uSMt9Ks8EmrbIoWv5gxoDMynrZIAud5ZDMqChIAASSQoBfpPqPPpycOC2CFTdFVVbfR8EHPEQlsGD1eTq5ZEQRTEtM20ByIbl+iEAG4IV5MdzhPc8C8YNgGtL/Y8xxRAzOGcFEGZJELJvNjtEdbSsBXNGy/SasWcORMt9Ks8EcFQYs1/HFoJn+fRekCDpgBJUS2x8q8WCg1MgUEm64DMAAwJyLsxuYVjscd7ILAlhJBHIIO/+nkvpg4LYJe1tDQ/8+YUmAGuA4h/y8RmHYGgkEiW9VQCeX9eS0ExzAcRvMhw5zG7ZGDlSmbJqp0hqSDKAAFPvkx3OE9zwRMAsbCon6CgdQCl6hQKdD1h3AJboQ8r41BiArrBmGWFCUSQv+qAANMcQQjQIAwAg1AwiXbq5OXrM17AV6ciZb6VZ6KocFsHoY7nCe54sNY+gGW+lWSzE5MCq7VPuEqWJK9auSygyhSRFQBHdK+qpIzE62MGumxi6hU0+G0MjErsTStunH3XqCIircDUQ5t0ASAioi9olbmK2COcgUILgWrhcRMlNtojrQaVvDsBCQNFANuUKE6yoFRhjVWEwpMVYiKWNYhAC3K0e4PGSgjEDAjsmICioVk2XraNySLACo5NMo2uO9SBT/suTHc4T3PASlitmoQk6KVXrYkAkQ+8LLhmrbdWj/g8ozccsA1s+jGc0UESj7EZasxLZAN1aAJhAg5Iy30qqfMHoYrnDhCkU19CJRmVVPCe56GZbxOOPwOOOPhBx+B+B+I4+APhB+Bx8GRCMybk3JuTcm5Nybk3JuTcm5Nybk3JuTcm5Nybk3JuTcm5Nybk3JuTcm5Nybk3Iy6I4sih0m5Nybk3JuTcm5Nybk3JuTcm5Nybk3JuTcm5Nybk3JuTcm5Nybk3JuTcm5NybkBnNAOE9zwKRKoGhSI/hAEZCpICF1yRtAGNULEKmWEIAppCR1aDGolamCCkEqo41mVRISPAWzhhMMoGoYQ/b4qd90gPYOoQODEy8uha3VNQCERu2mbxiyEpiBiylNEu5ixqtAiUExN8eRMt4gZzE1iaxNYmsTWJrE1iaxNYmsTWJrE1iaxNYmsTWJrE1iaxNYmsTWJrE1iaxNYmsTWJrE1iazeZW7gUUUUUUUUUUUUUUUUUUUUUUUUUUUUUUUUXkqKKKKKKKKKKKKKKKKKKKKKKKKKKKKKKKLjPc4U+ft4R6GuSz2me54IcTzotADO5wekRdQX4NECV2gLSg2KVhui1ICYusp12GUbIdIPIsUSyKpDalgATr/PFShASWNH+rQ8AwBKd67pKKswqCivbrBOQcQQQPvkjLeAz6fBkt6rUqjOFCgIsIKLjm5JVSIOrdkeAi5hrdRmK3EkBgDRqH1IWx/wAmTA6OcgNixY0iWfyJiHcaAy5u7LPadIHiXOkgeEbT6fBKKRU6e6FfuSAJTckYwrKhZIj7Wi6gKQ0/lpAEgxAMhZBDMqiQQQtRjKgNcVV/bXnFZ7TYIKFMR/3H/cf9x/3H/cf9x/3H/cf9x/3H/cf9x/3H/cf9x/3H/cf9x/3H/cf9x/3H/cf9x/3H/cf9x/3H/cf9x/3H/cf9ypWggHAZ9PgJ+EKIBJM0nl5gZCCXMZPOAVEioghsTX6lSCXKuA84j0BiVbY8mrPewd/3/wDy4TPp8DkoI2w8i3mMYg7FaApPoYp6AAXFQCwDSVaQ0ihIVFLnZD45NWe+zPp8DYEgfESRCjNBCPA8sYCNYAZCbKHkkBUshyf1Ktzq667TPuawUBqu0MUImQ45NWe+zPphCIwCQi0qiQABe9VYAqABASnVLr2jgh0jPFwECqLxgGalvJMUIcPgZ2rAGFJUDCExjSBF1NIYjeXXdkf+8mrPfZn0+AINvDCGhwBYX5JciQ5bxrVgPY3zAcwyA8mrPfZn0+AR7SkCwM01t3hdBE5ArhshlHJvGhErG39iNAUAO/U+SUioaJ1hW1zihVknQxIeL4sIP0IqMwIANNZm2sBWj5NWe1HwB8IPwPxH5QAfiPwPxH4HwmfT6IrPaZKBv4ixYsWLFixYkWLFixYsWLFixYsWLFixYsWLFiRYsIOyA8Bn0wtFXhjYAVLFB4OEOMHUhQSKbquCBwqgAEK/8QBBIgMPh/8Akq0Bpo/ryMewREGTjeF0mAMEAEwCgcU5VWe07A18LeMBN/BCatnoBMcBn0+iKz2me54Y2F9oqr38PpPiIceIjQcYOlDN+bC0EbUl0R9gGAVwFwOeMt4DPphlXwCNgmDe0JBYkNZ0jYMjkgeq2N1BWOIb/unSYDEpsNKr0UFRXjacB7X1VsIcYZJIQiwfAhCJeKdsMQdYKDPk1Z7TPc8CJAJsJFohcQOhmggMAZYhbnjLeGwdPQy6pb7TPc8AhwzmyAQgAQIYD5ZnhNiIzCKQUImCOI8Ao0mmgNVBR+LIKSc++SMt4Xy2T9CJJJJJJJJJJJJJJJJQBJcD2me54CvP5QMLKsbQLVX5ZThIEBGKU62EJ2NVRWoVK0pG6wU6RuiCgXEK7MzyRlvEvQgAAAAAvah7ngko5waCoA/YlUAwEoqM4WhgmEaGqWpBJUFZpv8Aw+SdBmA4gfFQhxrvCtQ0KVpDALbKACUMISA6SxUjVK/J2+/D3PA3CIoCBDAT3CHQB6rZAIcUORDBuPgwZBHFeADX35L8R0gMy+IrZDchIxAslAxUVwWJiDhWWuKD/OSMt9+HueBECwGohUCAJrV4P0QKNSMdPIt3PFCdoFJHhhCK5RYtDSpcmZb78Pc8AABggJkFurtBksqDdJT5aCBwoNuCA3h+JRtMBda9EOHUoN2Li1j/AMIYkZGr/wA4yTWFXDJMQKiOxjJSKQLtKFrcmMt9+HuehmW+/D3PAZkNCgJ/qoGipgEwPtURgnUxTBkM9dYQWRVRNsVhIWAGAJwjWXzhVFnGgZUTideKtYK4Vs+jL6XABSq63KElNYD1ACPVvmAFAgwM+Tt9+HuehmW+/D3PAPxdczQRSrsazKGAYZ84Vsg4WwiWwO2N4WGAQSHMQxxggBMAMmJrV3ix2SpI1aCg46IFUxVZb5mnsA1sAEFjjWARgII9AVQ+uUt9+UkGX9CJH79A58LWaQmkmkmkmkmkmkmkmkmkmkmkmkmkmkmkmkmkmkmkmkmkmkmkmkmkmkmkmkmkmkmkmkIiwB79UUXiKKKKLwKLwIeBReBDwKKLxF4F4i8Ci9L/AP/aAAwDAQACAAMAAAAQAAAAAAAAAAAAAAAAAAAAUUMMMMMMMMMMMMMMMc0AAAAAAAAAAAAAAAAAAAAAAAAAAAAAAAAAAAAAAAAAAAAAAAAAAAAAAAAAAAAAQ8MIIAAAAAAAAAAAAAQoAAAAAAAAAAAAAAAAAAAAAAAAAAAAAAAAAAAAAAAAAAAAAAAAAAAAAAAAAAAAAsEAAAAAMAAAAAAAAAAoAAAAAAAAAAAAAAAAAAAAAAAAAAAAAAAAAAAAAAAAAAAAAAAAAAAAAAAAAAAAAsEAAAAAEAAAAAAAAAAoAAAAAAAAAAAAAAAAAAAAAAAAAAAAAAAAAAAAAAAAAIAAAAAAAAAAAAAAAEIAAoQ0AAAU4IAAAAAAAAAoAAAAAAAAAAAAAAAAAAAAAAAAAAAAAAAAAAAAAAAAAMAAAAAAAAAAAAAAAQ8AA8UcIAAE8oAAAAAAAAAoAAAAAAAAAAAAAAAAAAAAAAAAAAAAAAAAAAAAAAAAUgAgAAAAAAAAAAAAAA4AAsgAgAAAYgAAAAAAAAAoAoMMMMMMMMMMMMMMMMcIAAAAAAAAAAAAAAAAAAAAUAAAAAAAkAAAAAAAAA4AAowQAAAQgAAAAAAAAAMgUgAEMAAAAAAAAAAAAAUgAAAAAAAAAAAAAAAAAAAAUAwgAAAAwAAAAAAAAA4AAM88888888888888884AUAAAEAAAMIAAAAAAAAUAAAAAAAAAAAAAAAAAAAAAUksgAAAoQAAAAAAAAAoAAAAAAAAAAAAAAAAAAAAAUA0QAAAAQ4AAAAAAAAAAAAAAAAAAAAAAAAAAAAAAU4AQIAAsAAAAAAAAAA8AAAAAAAAAAAAAAAAAAAAAUAwkAAAA0AAAAAAAAAUAAAAAAAAAAAAAAAAAAAAAUMEAAAAAMAAAAAAAAAoAA48888888888888884sAUEgwAAAAAgAAAAAAAAQIAAAAAAAAAAAAAAAAAAAAUAIAAAAEAIAAAAAAAA8AQoMEEIAAAAAAAAAAAAwoAk8sMMMMMMMMMMM8scogAAAAAAAAAAAAAAAAAAAAUEIAAAAAMAAAAAAAAAoAAsA4QAAAAAAAAAAAAAAoAAAAAAAAAAAAAAAAAAAAAAAAAAAAAAAAAAAAAAAAMYgAAAAgQAAAAAAAAI0AA4ggAAAAwgAAAAAAAAAoAAAAAAAAAAAAAAAAAAAAAAAAAAAAAAAAAAAAAAAAQQwwwwwwwwwwwwwwwwgAA4AAAAAAgAAAAAAAAAAoAAAAAAAAAAAAAAAAAAAAAAAAAAAAAAAAAAAAAAAAAAAAAAAAAAAAAAAAAAAAAoQgAAAQAwAAAAAAAAAoAAAAAAAAAAAAAAAAAAAAAAAAAAAAAAAAAAAAAAAAAAAAAAAAAAAAAAAAAAAAA8wwkAAQEgAAAAAAAAAoAAAAAAAAAAAAAAAAAAAAAAAAAAAAAAAAAAAAAAAAAAAAAAAAAAAAAAAAAAAAEgkYAAAQ0AAAAAAAAAAoAAAAAAAAAAAAAAAAAAAAAAAAAAAAAAAAAAAAAAAAAAAAAAAAAAAAAAAAAAAAUc8888888888888888kAAAAAAAAAAAAAAAAAAAAAAAAAAAAAAAAAAAAAAAAAAAAAAAAAAAAAAAAAAAAAAAAAAAAAAAAAAAAAAAAAAAAAAAAAAAAAAAAAAAAAAAAAAAAAAAAAAAAAAAAAAAAAAAAAAAAAAAAAAAAAAAAAAAAAAAAAAAAAAAAAAAAAAAAAAAAAAAAAAAAAAAAAAAAAAAAAAAAAAAAAAAAAAAAAAAAAAAAAAAAAAAAAAAAAAAAAAAAAAAAAAAAAAAAAAAAAAAAAAAAAAAAAAAAAAAAAAAAAAAAAAAAAAAAAAAAAAAAAAAAAAAAAAAAAAAAAAAAAAAAAAAAAAAAAAAAAAAAAAAAAAAAAAAAAAAAAAAAAAAAAAAAAAAAAAAAAAAAAAAAAAAAAAAAAAAAAAAAAAAAAAAAAAAAAAAAAAAAAAAAAAAAAAAAAAAAAAAAAAAAAAAAAAAAAAAAAAAAAAAAAAAAAAAAAAAAAAAAAAAAAAAAAAAAAAAAAAAAAAAAAAAAAAAAAAAAAAAAAAAAAEMMMMMMMMMMMMMMMMMAAAMMMMMMMMMMMMMMMMMIAAAAAAAAAAAAAAAAAAAAAAAAAAAAAAAAAAAAAAAAAswwwwwwwwwwwwwwwwwEAQ4wwwwwwwwwwwwwwwwcIAAAAAAAAAAAAAAAAAAAAAAAAAAAAAAAAAAAAAAAA0oEgAAAAAAAAAAAAAA8AA4kMgAAAAAAAAAAAAAAoAAAAAAAAAAAAAAAAAAAAAAAAAAAAAAAAAAAAAAAAU8AAAAAoYgAAAAAAAAoAA8AAAAAUMIAAAAAAAAAoAAAAAAAAAAAAAAAAAAAAAAAAAAAAAAAAAAAAAAAAUAIIAAAMAAAAAAAAAAoAAoEAAAAEIAAAAAAAAAAoAAAAAAAAAAAAAAAAAAAAAAAAAAAAAAAAAAAAAAAAUMIAAAAAMAAAAAAAAA4AAoAIAAAEIEAAAAAAAAAoAAAAAAAAAAAAAAAAAAAAAAAAAAAAAAAAAAAAAAAAUMMIAAAEAAAAAAAAAAsAAsEIIAAEMAAAAAAAAAAoAAAAAAAAAAAAAAAAAAAAAAAAAAAAAAAAAAAAAAAAEkMEMMIMEAIIMAEIAE8AAQMw4MEcMMMEAIIEEAYgAAAAAAAAAAAAAAAAAAAAAAAAAAAAAAAAAAAAAAAAAwwwwwwwwwwwwwwwwggAAQwwwwwwwwwwwwwwwwwAAAAAAAAAAAAAAAAAAAAAAAAAAAAAAAAAAAAAAAAAAAAAAAAAAAAAAAAAAAAAAAAAAAAAAAAAAAAAAAAAAAAAAAAAAAAAAAAAAAAAAAAAAAAAAAAAAAAAAAAAAAAAAAAAAAAAAAAAAAAAAAAAAAAAAAAAAAAAAAAAAAAAAAAAAAAAAAAAAAAAAAAAAAAAAAAAAAAAAAAAAAAAAAAAAAAAAAAAAAAAAAAAAAAAAAAAAAAAAAAAAAAAAAAAAAAAAAAAAAAAAAAAAAAAAAAAAAAAAAAAAAAAAAAAAAAAAAAAAAAAAAAAAAAAAAAAAAAAAAAAAAAAAAAAAAAAAAAAAAAAAAAAAAAAAAAAAAAAAAAAAAAAAAAAAAAAAAAAAAAAAAAAAAAAAAAAAAAAAAAAAAAAAAAAAAAAAAAAAAAAAAAAAAAAAAAAAAAAAAAAAAAAAAAAAAAAAAAAAAAAAAAAAAAAAAAAAAAAAAAAAAAAAAAAAAAAAAAAAAAAAAAAAAAAAAAAAAAAAAAAcgAAAAAAAAAAAAAAAQsAEgAAAAAAAAAAAAAAAA4AAUAAAAAAAAAAAAAAAAQIAAAAAAAAAAAAAAAAAAAA8AIAAAAAAAAAAAAAAA8AQMIIAIAAAAAAAAAAAAQoUAEMEAAAAAAAAAAAAAAgAAAAAAAAAAAAAAAAAAAAUUwAAAAAIAAAAAAAAAsAA8oAggAAIIAAAAAAAAAoUA8ggAAAEAAAAAAAAAUAAAAAAAAAAAAAAAAAAAAAUoAAAAAs8AAAAAAAAAoAAskIAAAQ8AAAAAAAAAAoUAYAAAAAIYAAAAAAAAUAAAAAAAAAAAAAAAAAAAAAUQgAAAAQggAAAAAAAAsAAoUgAAAQwgAAAAAAAAAoUA0AAAAAwQgAAAAAAAUAAAAAAAAAAAAAAAAAAAAA4QAgAAAAAAAAAAAAAE0AA4QwgAAQAgAAAAAAAAEoUAwgAAAAwAAAAAAAAAUAAEAMIEMMIIIMAMIMMEAI0Yw40ww4wwwww004wEgAAM00ww80ww4w0www0gIAUAwgwgAAQwgAAAAAAAQAAIQwwwwwwwwwwwwwwwwoAAAAAAAAAAAAAAAAAAAAAAAAAAAAAAAAAAAAAAAAUIQ8ooAAEwAAAAAAAAQAA0QkMYAAAAAAAAAAAAA8AAAAAAAAAAAAAAAAAAAAAAAAAAAAAAAAAAAAAAAAAMMMMMMMMMMMMMMMMMMAAcUAAAAAA0gAAAAAAAA4AAAAAAAAAAAAAAAAAAAAAAAAAAAAAAAAAAAAAAAAAAAAAAAAAAAAAAAAAAAAA8cEAAAAEAIAAAAAAAAsAAAAAAAAAAAAAAAAAAAAAAAAAAAAAAAAAAAAAAAAAAAAAAAAAAAAAAAAAAAAAUMAoAAAEQoAAAAAAAA8AAAAAAAAAAAAAAAAAAAAAAAAAAAAAAAAAAAAAAAAAoM8cMsscMMMMcMss88IAUIEMAAAEIAAAAAAAAA4AAAAAAAAAAAAAAAAAAAAAAAAAAAAAAAAAAAAAAAAUAIgIAAAAAAAAAAAAAUgAcMAEAAAAEIAAAAAAAA8AAAAAAAAAAAAAAAAAAAAAAAAAAAAAAAAAAAAAAAAUA4gAAAAMEAAAAAAAAUAA4AAAAAAAAAAAAAAAAEIAAAAAAAAAAAAAAAAAAAAAAAAAAAAAAAAAAAAAAAAUAkIAAAAgQAAAAAAAAQAAQgAAAAAAAAAAAAAAAAgAAAAAAAAAAAAAAAAAAAAAAAAAAAAAAAAAAAAAAAAUAYQAAAAQoAAAAAAAAUAAAAAAAAAAAAAAAAAAAAAAAAAAAAAAAAAAAAAAAAAAAAAAAAAAAAAAAAAAAAAUAAQAAAAwAAAAAAAAAUAAAAAAAAAAAAAAAAAAAAAAAAAAAAAAAAAAAAAAAAAAAAAAAAAAAAAAAAAAAAAUAgQAAAAgAAAAAAAAAEAAAAAAAAAAAAAAAAAAAAAAAAAAAAAAAAAAAAAAAAAAAAAAAAAAAAAAAAAAAAAUMgAAAAAggAAAAAAAAEIAAAAAAAAAAAAAAAAAAAAAAAAAAAAAAAAAAAAAAAAAAAAAAAAAAAAAAAAAAAAAoAAAAAAAAAAAAAAAAEgAAAAAAAAAAAAAAAAAAAA/8QAFBEBAAAAAAAAAAAAAAAAAAAAwP/aAAgBAwEBPxAYh//EABQRAQAAAAAAAAAAAAAAAAAAAMD/2gAIAQIBAT8QGIf/xAAsEAEAAgECBAYDAQEBAQEBAAABABEhMVFBYXGRECBAoeHxMFBggbHB0bDw/9oACAEBAAE/EP1K1EH6IAAAAAAAAAAADC395TgIDa9pRsSm0ptKbSm0ptKbSm0ptKbSm0ptKbSm0ptKbSm0ptKbSm0ptKbSm0ptKbSm0ptKbSm0ptKbSm0ptCy6iX/3jqdEJTq5kZotYJKUThQrwKyIOThF0B2RA1RnG2xRRb8WxCmtVrU3BlAva58oFIlYAGqHrF3kP7vXmglqeQSGY1sNIEO0WZHA7Mbl1Glq5UAWXaoOgYv/AGBxB+xW90fK2vFy2uBs/B0uFWFm9vQiR2j2gXz9Z7xD+715o8bNwXgttafBNJhVtHEvR9d7xD+715oJXFz4QWByDNwjnwHIsda0U8JZYEgbVQAGOcALnVDUaposPwphgRACmqAyEDSZKJZAcDkSuCNuvUSyU8oVLQNyalqvI9H7xD+715oP0fvEP7vXmgmRzkCyIdTjCwMM15SsN10zCwBXUybRLADTjLlhuVNU2M1rR5912b0Lu4GvAFC2xYpeA8+KQAha5QZPHqxI1kDRZuXtPZNmjR4cfSPeIf3evNBCvOAoC6p/13nCXIOyObAq+HUkFD1qawwtroADt2JXDUqJmunVyzLibwjzkjKgAuo1k/UlKxP8xAiCMGRaBy9J7xD+TSeCsrvKysrK7ysrKyu8rvK7ysrKysrvK7yu8rKysrKysrKysrKysrvC8G/LrzRMdQ7xhcuFin/lCgbB0blEsBmY0ixwXNKAZcOC5iNgGZwF0rINc5T1LF77IJ+BvIcnqyLsYr/Y4yJZGwOpwREdkRq0HwlfXCzRsSuQfADu04Ac7REogkNxoqZWoei94h/JKApzR8Jys5WcrOVnKzlZys5WcrOVnKzlZys5WcrOVnKzlZys5WcrOVnKzlZys5WcrOVnKzlZys5WDq1cotpoQ8mvNBFgGAtdAPAc3WKFNL0RQKdv+EsEYFC3iyu9xdJGcAwYMcjDZygftijzVfd/A2yrQacImepBK3k2gQk8gxyi8iWlBSHyNRzjvNoFfB2wMkZ0avazded970XvEP5Jx7WCe6YCkLlCKOAwDGXhABqlCXwf0LrDWiHk15oJUywSpENCrdK+EaHXOQXUhlAqTupdU8oGs2TBitTscTlEiB0EfJ/kWlCpVlmp5xyiG5U0ABWULxS5LQBKu6wc44Rqom0cLs4kT0dZoRMDRE9H7xD+TPbS8OVEFBWoV4XL4EFCeXBJOEp6f/pagvuYjGpH7fOoV5nPSBtrSITZ4U4VIgx63R6E0eTXmgl4DAdo6TwbVXCZuStiUC2n+piK49AAObxogLKGihjCNFd3aa+EusqotbFhWZyzLWoi9RQ0o5edMkrJxop7QYtPlCD4gKVX+xzsDZlqp0KCCWaPQf8AMPR+8Q8lxJK7yu8rvK7yu8rvK7yu8rvK7yu8rvK7yu8rvK7yu8rvK7yu8rvK7yu8rvK7yu8rvK7yu8rvK7yu8rvC36w9t+j0ehNPk15oIgM0WVWN6/I1bBbUGZsM2N0iWZiK2XSt/Se8Q8lOKLTexOQ95yHvOQ95ynvOU95yHvOQ95yHvOQ95ynvOQ95yHvOQ95yHvOU95yHvOQ95yHvOQ95yHvOQ95yHvOQ95yHvOQ95yHvOQ95yHvOQ95yHvOU95yHvOQ94+RY1Jefqz20toB3ZFDhXGExSiiIZ0HX+PnyNrAtXTtMxOYGrIitmhtmXJ5U6JT/AMLOcYRTurVCPi/yNVIyYHkoX6LS6Jo8mvNEuiKeWUXq7SBdODrC6sbBUqVgkVtzpam3gViAAWxJYqLXBoXK5NhuTbF8GF42KgEpYFrH4Awuc2BRYO20pjkSirJicLriFTwIpaJN5EClo9J7xDxYsPEPBO0b7sq6y/4/QpYx2fqz20KSSypQ0cS4BlDNkvdX8ayl6UmEidIMvcPNZRjZwKeW6HA0IsDX3JZHJR/30el0TT5LyAYq1j9GIC2tWGniz2jwuaBFibQwHq2ljZhpDQdLVHe9ShKV0mBJWWDW4KKWzgB+wCYoOdyGAGh294DLK3RFTQV2v1miaf6s9tF03ZFC1A0UJNx6yxT3pHX5KlPka1mteUCpYhQiqwmLcZjspQBBOIqz/wBiC5Wxlxpp0acNed80Q4XQ1Zq+yHKLO146xRPgzdBbAVuHlCgjhRuGC9VAcZY+lDlsHG9C3Vei0uiaPIxZG+gzrn2CfYJ9gn2CfYJ9gn2CfYJ9gn2CfYJ9gn2CfYJ9gn2CfYJ9gn2CfYJ9gn2CfYJ9gn2CfYJ9gn2CfYJ9gn2CCa95M9phV5Ge0fo9E0/1Z7aFxaB0tX/DA5KYOZDsNEaq1VAW1yFui1yiCsAhrh4aMPbV3YHHKEc8sEbC22i1u6+cQCCtEcJBkmltC9zxRa4xOYkfYhbkTILxmooCurFm+ajZCoEcJAHQoxy9FpdE0+WpUqUbSpUqVKlSpUqUbSpUo2lSpUo2lG0qVKlG0o2lSpUo2lSjaVK8rPaPBxuNAQzQAxi1+mNBQIXWZC02pYUtuMCEZUoK0DxM0KZzlM67FSFC8pjhcYglm4T0gLWxp58g+LeVNqnBqmkvfFm2q0ZgbDKLNI2AaHNDx/I8CkDG6J6Jomn+rPbQFK0O4LYmaJr07oAyDrLFdKbNMHw6Mz0gpY5dWDX8HIqgCb3vOQWDoQc7wA1lFUtEzccHvnSw+wwQGM1crgHS9XT0Wl0TT+sZ7R4IJpJvis5VwOEYtKjazmk3ZnnOICYqBtUzxbDGkGtTVgirGiYxGVxABYhdDrQF6xXN9nootbmtRvXz1lMmMUqRBoXidogumjs3AYYxWJb0q1sUgtRbJiDEQ+gEB1Q9E6TT/VntoNY6qAsKIEpqf8uxkxs4JUDKnAGtIF30ViYEiNrOhQ4PilGcMagK2710i74fgPCje4U/9g25gSGajNcNDgi3ZiEIGaXQQv8A1BgabmogLUKEqYkZC5VdBPRNLomn9Yz2jwadeB6Kl40jvMdNC4eZpUyQ2sov8VCpzpUCcC5FnxqhY4kstC4y6wQIzV616OdJp/qz20oarNFusIsLEsbyNJ4JNKX4EWFiWN5Gk86hqzNVlzn7rBXeVi07yzCwurz6LR6E0frGe0eFw4eGtNhqFJNCDFUNi/CmHZEDC2LKgtANA4fiB2VZJJEWr0Elw7lhIDLRUupU+hdNhc7Bxfo9E0/1Z7aGZmYJTTUahb4U4igE47VbShy9UsrNreraXG3qDcROVOjHGEKXAqQNSUGXAYdILljigFFRaHR1lhm38wFSonVJgcxzEkJIFKhhQBDF5qQSsOGqrFFpDTMXUc1BAKGCmAkUpBartzdqy9FpdE0frGe0eBMIQNhos514lKaKkbpGk/DarKippV13JmEGpKFEvct2ZxnVznInJpmW/K7H0Wiaf6s9t+j0uiafLcuXLly5cuXLly5cuXLly5cuXLly5cuXLly5cuXLl+VntHhl8uCG2gU2Ayy6y4Cw9Q142d+aLHWEwsLstNQQOq2SZG6ro/CSNCvJMuksOFl6GsWOKGutKbQ2ImQrVjNhLI+qd6K9FoZp/qz20KcIQO1UEYOgwGuJBqEFaERqsOweB4ASuGAsSoQ7G4oA6toIiBpAkIBPTU/4v8DQRwNYcu9QJFyvVRULKVjeZpL37TT0WBq4BO66SQKHLWhiU5BfkQXiNm6u/RNHoTT5Flyjcx5szdUzdUzdUzdUzdUzdUzdUzdUzdUzdUzdUzdUzdUzdUzdUzdUzdUzdUzdUzdUzdUzdUzdUzdUzdUzdUzdUzdUzdUzdUzdUzJakpXkQb8jF11ENM1xH6IQvbx0lZ+rPbfo9LomjyVkow/RIJTHT2NQ8gg/oYAAAAAQEh+rPbTIIhWEFAD/AALwYSkKOlA0VwF74BGMGovWC1JXd/ESApAsAsP90jIKUe800k4Awi6OQQ1ZeiGuREh0EoDgHGBIcEGCOMPPVeitLomjymiKu1EsQMt6YiJOMsSZCE0lGdagHoKBdyrMIa6j4Oxtim2r9cW4J1jeWciXvrLkHO6dKLnoo9JDVsWwlVeeUainhSC1dB6v3iHlqVKlSpUqVKlSpUqVKlSpUqVKlSpUqVKlSpUqVKlfrT236PS6Jp8mvNBBTFR7cAm7ako0lHRh8UqGjJFVYoL6qBOyo5ylXnqVJWCv+xVXgVElAG05wYhi77VACmRDFa2i2/7OLQyAULRIh3iSgVbYrdfV+8Q/kz20GwogiishxAWwTLvkCwqwCNjVxXJUliSPQPxCbJFxUa9obQzk3CmUyP8AImh3yoezkzAK0Ef6X6PS6Jp8mvNEawccIvOnfwdlupx3YMVhRvQap+HO7Koi+rEFaZXmBd1zjgcKkShq5Z/yaBzrMLxbnCej94h/JGGIHDEDQG1DcOpngyjD/wDvOGf9gd2AADoHbl+Jx7BrA4RGK80AARsTHByRVyuWUwvQ40X0hoQCgMAejqla0IeTXmggcsHclaBRozlS3jtOC0lzVGtNc6LCNVJsFc5qooQAqlBRS/wj+A53SiqFP8SmrYEpfhgGIg6SyahMDAMboKzUK4s02Ge8o5ej94h/JXS3jZqRLUf8m72Ju9ibvYm72Ju9ibnYm72Ju9ibvYm72JudibvYm72Ju9ibvYm52Ju9ibvYm72Ju9ibnYm72Ju9ibvYm72JudibvYm72Ju9ibvYm72J9ZAaVNGKsweTXmg/R+8Q/k7Yt+hgqCIKgIAgCAJCnl15oIimIJK6k2sc+iW4YixbIMtFUVlKuMGNSNcFD8R0LcE6C2g1PL3UJQoyLN2yjNHmKAloyhkFZQwsTOIFsJvdGDdT3dJW12VTQxw9F7xD+715oP0fvEP7vXmgj1RYMDo5gyMVdpC229LisybsvaSCDgVNcCKaICwfidROu0AvED0bYKxS7LQ1f4L36wF2g6Zf5MuNBTIAIuxn/QlUK4TPSZ0KOCMU2QINmZyVgzMwtzgAEY4DBbCvRe8Q/u9eaD9H7xD+715oJYgJhwBYihYKVmaqywqRwyuL3SwzSXAtbsOqwQFwQDJvTKWZR1glibyhWclxZuWLiRSKsGUHNMKkQPBjHmUhKh0qXAhvb3Q193VAPbAVgDcji/GLo8GmKGQ1jlUuta5tKaFwz27tIou2Rk1R9F7xD+715oJcmi0p5k0vHcMaBOc0cTij1jYMRGxomYOBBpRxmBAEK6KN1bxds3IC3d8zgRNRgFKLvJxjmjUSouqTX45ThptE7czobtvoveIf3evNBGwr06JZKZBK3i4YaZwXYGCuIoOcwbrIthozvqVpGhnQD/y9+ASp6BkC7zSuLT8BLPTnCgv3lLpmpqgBW+AwqxbqgCLS9H0j3iH92bh0MwyQWM1g/wD54o7kGFDlCKdI9SZgUTdomi+BvKVBzjxcALowr1xL123XhzlFpcuW38A0QDcgbEUJOeGkOh1G+vOaoibFjtqqquVfSZk0VD+7vJ11HiTmPacyHMhzIcyHMhzIcyHMhzIcyHMhzIcyHMhzIcyHMhzIcyHMhzIcyHMhzIcyHMhzIcyHMhzIcyHMhplHcSrDT+7S4UP6EAAAAAAAAAAAyBX/AODpcuXLly5cuXLly5cuXLly5cuXLly5cuXLly5cuXLl+e5cuXLly5cuXLly5cuWby5cuXLN5cuXLly5cuXLly5cv+UWiItG2W8T0J9RPqJ9RPqJ9RPqJ9RPqJ9RPqJ9RPqJ9RPqJ9RPqJ9RPqJ9RPqJ9RPqJ9RPqJ9RPqJ9RPqJ9RPqJ9RPqIg20kPy1UuUZluj/J9RPqJ9RPqJ9RPqJ9RPqJ9RPqJ9RPqJ9RPqJ9RPqJ9RPqJ9RPqJ9RPqJ9RPqJ9RPqJ9RPqJ9RPqJ9RDmnSXpLg3/JqjDhxP6PCBokPJXNGH6JLI6exqH8ne3gbE3oNkLwkZcU9DF0vTDivEYSBRM7t0jJTQzmFl3oI8KxgLw1zGDvKk0hwLsPP12j0IeTXmiO/pRnnU1htAgA/YgFvBrjFZzM5i0qMUsEb8XGJek1BAHmPClcbqJZvIIk1FLGmmvKaOfPGQbGG4+t94h/JntodCQKQrhxJqzqSUMGgyFMcIQG5JyheLsLWzMkepAUkVg/4UGY5usqnYsx67S6Jo8mvNBAow4E1gCuSGEl52g+U0hsUUuN8DWID6KX7KFI1zSXhnrNs9bTVCTukK7as5MOu04qj1YrWfW+8Q/kz20LYtiV2xc4VpzGVX+NxCF6A1Vioa0xPcz/kWlmxUnOvXlFqmAAVQbeDrD6bYwTknotLomnya80EBtqICOJqYJ2gB1UNP+J+PP8qrG+rF1O5bN0Xg5xhKKkahq5ZrlKu/UVcvCucJ6P3iH8me2g7ktEWK6KGAgwaHOf8Awq/GPMTV0KF46x5lAXnhCio42GF8MYMJh0GwiTCWIdT/AMAH+ej0uiafJrzQR7rgLYVCqxvhZVJUFcbzb/v4zpC53yitQgJdIEmWQKEog6TI1FplwCmaCswyc70I4941y9H7xD+TPbeS/X6XRNPk15oP0fvEP5M9tEMBpOb4sDVCKCDgHAS4HQonCQeYxLXiqMaYamHWWZba23ReJS/4RNSNqBaGtPwBSRY44VuxmMbq6hKYJFUXMg5w5hbfTsj0ml0TT5NeaCJ4UtoLdR5qHEGVc0CdnIGqSQzUCKlvSkslgMwohuMuqobvI/CoMJ4IDRiymsXbrkqvRXNCKf5CGeBHniqLHWJxmM7VTv6N7xD+TPbfo9Lomjya80H6P3iH8me2h7D1066yGzjAzoySDCKEKpcZC240UvEHqZjTt6qaARqvw3cwtd5OBvdQ479oOmhrF61xieaz1aMTAY6Y85YxQQ0HZ9HpdE0+TXmiZblGh1MLA4ysRZtMycwOlzEvBNTNTYdXIK7HzxwHlu5WBRd8Sy2MOECRW1KZbWDv4ytRqh04g9jksYSxQylh5hGZBalo/wAgMTaRtgasWtVWhAI7FC1HKCgKghfHmXCzBywpnEsMb1KAkWMTjxH0T3iH8me2/R6PQmnya80H6P3iH8me2haXbieFhKW01P1QA2OpKQfSZKS3SgZKvK+EqVI0G1AWE0XcpXAptEE1fGwH4EcboWEOMWsv3rYQUtU28UQ7BCdUwlvP6TS6IeTXmiUhdoo6OF5RxIYWrdsQK2sajC3JiOEB0giIQqqDxSEtYteMSgqKOc6RgzLsQQbcA8YQvFUo0wTOxKwS/wBtjdSdlFcZ182apdcM9HvgJNcSZZUaGtSVFa9LK+F37HpHvEP5IXIIDgpEBBdHKf8AjrXrAAECiHDaLErlaQSlFjp+ACgEdRgBQKoIRQt3SXn0jH2FMPIbICjRJwZjV1moGAEVimHchFEcyO0GVmZ0SklXeBaVpRVVVVgFDNgQGQ1EMvmMohd5nIIoRtVWnpFzBYfyRuJTsZUZV8ot8kt8kt8kv8kt8kt8kt8kt8kt8kt8kv8AJLfJLfJL/JLfJL/JL/JLfJL/ACS3yS/yS3yS3yS/yS/yS/yS3yS3yS/yS/yS/wAkv8kcZ+rLK8PJaQsB5DFn/wBJb5Jb5Jf5Jf5Jb5Jf5Jb5Jb5Jf5Jb5Jb5Jb5Jb5Jb5Jb5Jb5Jb5Jb5Jf5Jb5Jf5Jf5Jb5Jf5Jb5Jf5Jf5Jb5Jf5Jb5Jf5Jf5Ia2Li/wArVnCV2lNpTaU2lNvCptKbSm0pt4VNpTaU2lNpypTaU2lNpTaU2lNpTaU2lNpypTaU2lNpTaU2lNpTaAOEKeazhKbSm0ptKbSm05UptKbSm0ptOVKbSm0ptKbeFTaU2lNpTbwqbSm0ptKbTlSm0ptKbSm05UptKbQpwgV/+DpcpKysrKysrKysrKysrKysrKysrKysrKysrKysrKysrKyvgvzXKysrKysrKysrKysrKysrKysrKysrKysrKysrKysrKysr4L81ysrKysrKysrKysrKysrKysrKysrKysrKysrKysrKysrKy/1aqNFPM2dWdWdWdWdWdWdWdWdWdWdWdWdWdWdWdWdWdWdWdWdWdWdWdWdWdWdWdWdWdXwXViK7HPwB5FxgKq5k6s6s6s6s6s6s6s6s6s6s6s6s6s6s6s6s6s6s6s6s6s6s6s6s6s6s6s6s6s6s6s6s6syA2S88tcEtbuBOrOrOrOrOrOrOrOrOrOrOrOrOrOrOrOrOrOrOrOrOrOrOrOrOrOrOrOrOrOrOrOrOrHW6iL9U6TVb/o0JWqQ8lMmg/Rqg4LDxY+aIfozYSl+rfbxe415p4agf+ogaB8ES5220tEseFdETVlJnhSMnpNQOBNWocUk8tdRfXaPQmjya80ShN0Emc6xzMsdwiFOsKs2vADiW8j3KtokwPiLikOLz86yzhkmbwu7oXR7mVa/N/YkOBiDWnR2f5+BpHMm0tlOnv6v3iHiz2jwHOCIC9BQiLLl8OyYFdSytmMg//pbPGhij/g4l3fUn3CNP/saPR9eJ0OmxtMzp+ontTpDgesdJp/qz20HA99So4KLowaB2ogwoUI41DRBFHQM1eexCF1PVJJKaheuIwkUIpKBgtL/vrtLomnya80R4eltRXMZurUvg/wAp6KZLOWnCXN5i161DDQt4wQD7nTlMHlDi7imBTKEPCpXSFr43qY3ejpBkM5YclasmjEoK5KAUAGger94h4s9o8Ky+0LPY1or2Eubq5EgMrW1vMfehkTd0aFt3mrn0qbrSrOtR4k12gXWDgrThD2ZANKFNVcX1miaf6s9tAl/RSLhedqjqFPOx/GvCoAtAWxGG4KBKC2lWjXmImsgzkoh9viFVgXQ9yaKNdGk6notLomjya80ErAPmNQs8NHeBmmCRcVNcH8ZkhTKlpdDkMTsKIDtqu4q4CAd7kKar2hBJ8qgBbNJ6P3iHiz2jwQWlWkVZMZlK7rvF1/5+NtxqUBq1NCh/sT3MtwWOPFFbVFOg9wY89SD5n5eiaJp/qz200cvJyKwaOI0wO/BVQOr/ABsWZaWBTV44yjGwJoERA0UsQtscRajsv/bq7zFbZAKUmNC0O3o9Lomnya80E3Tg4GGssNE0hCHhQqD0BoeH4z6FNHUEyMJnaNQZUl6QrZGVrEi+SVqiGOdKqZRMwYIrTRbPo/eIeLPaPActaAVdv1N7g+OdK2bzQH4yUOK3YllSryIeccS0WwN1GiuBuCgeMXRc+WVzmDI3oKLk72PRaJp/qz20ZDJAFgWi+AZfyIRmrSiVaearAsBuGWCYGKUs6F3UB6z0JprwFh2mBly+G78XotHoTT5NeaJnQRoFraOeDp4LcSEZf6wQSuIdBVp3Pwg2hoEb2tiJq2Lt6Xjm0iyYqMwNXLNcpWnWllwSm82I/wCno/eIeLPaPB2lgVDSicsnU/IgV3oyjquUpAtWUXe3FM1rURv1TfAYc7K3ucC8hW0dV6sO0yniql3U9Domn+rPbQxLPCpqXsH+xpFSjRgtqrYNTwDWANP+cLq/xe0vSlM1pooy39NoDADiGNFgEC9VgPIUSrjVu8CBwopxmPPpG2lNG6xxe3ojS6Jp8mvNBAYmrTpU28wQTQTB0FxIqkz6qJZ0mgiw89H+StFdGE6JFJ1fhrpzxqgq0SAnZsfFeV0WOTaAdivjkBVwAJT3GDAD3lNhPR+8Q8We0eCygF2rbTZbeekASHFYqjlipLVc2hoBgADT8VbHRW2U/wCuwlBtJEujBTCjDChOo3sUHBwOpEL1qyksskPN8I6WkbFhUSt1gcg9Domn+rPbfo9HoTR5NeaPGy68b9b7xDxZ7R41FJYUONfoNE0/1b7eUY3KRp9G4QHiRCllUhI4miKegiLoBdVC2zLDIGxWqKjrOYBpJmUZVBLBU0XCkGjYVxAEdVLztTWZqyQ92LMSE0FBkXijiCjLha3plil6vGAACg9Ho9CHk15oiU6S1Pgtgl28N1pSuiRHAX6klc8bLXgtAMEXhA6QUIhwPDRhJ9VEmRU6GNqFqEp6zzqhIxyUBpkymsU1vRQhaOI1MS+gq34RamqLjQIFS3Laq5+je8Q8We0eFY91Y9JNzbElChLxWSLtqhYSzN6DoxNBoYZ1PxBERDnTgEepFsMJ0XqeC1MsWfSgNbxVN8eWHlFCANZ05+i0TT/VGkCr/ohQLYkDgxDyWyfJYT9EaaECnUW4eLPaP0eiafluVlZXeUld5WVld5SUlJSV38NPDTw0lPHpKSnhpKSkp4aSsrBvwSXZgGCVfClfClfClfClfClfClfClfClfClfClfClfClfClfClfClfClfClfClfClfClfClfClfClfClfClfClfClfClfClfClfClfChr1gHypEu27kJ8KV8KV8KV8KV8KV8KV8KV8KV8KV8KV8KV8KV8KV8KV8KV8KV8KV8KV8KV8KV8KV8KV8KV8KV8KV8KV8KV8KV8KV8KV8KV8KV8KKW1c5X5Ge0eAeMDIIMVukqi9moAEZSANGtRdIK44XQtSq1YFgvKorYN27MRwXmYjGBkcGsMHJUVw6ahKjrcBDhtRHY5M/55iXG6u70CiXvBtBQkrVZrRxvGQT3ixEQKKYtGYAkIOHfCymS2gRQp5KiV2bOypw9Domn5HSUREzHInM7pzO6czunM7pzO6czunM7pzO6czunM7pzO6czunM7pzO6czunM7pzO6czunM7pzO6czunM7pzO6czunM7pzO6czunM7pzO6czunM7pzO6V4dyKnEbwfCvBWVlZSVlZSVlZWVlJWVlZWVlZWVlZWVlZSVlJSVlZWVleevBWUlZSVlZWVlJSVlJWVlZWUlZWVlZSVlZWVlZWVlJWVleVntHlQhQabPXOk0/Ix2B2X9HqnhmO/5Kz2jwvitRLqlqlFktzhgiUCLFyc4ZPVQoNIKNNgCNwqLzJvxkFIBoFFkMIFmQQG7S3mEej1NYFC8rzKoCUm6oForWALH9xZMVgbBYVWALM5FhBFSiFlULPE1zMvRaJp+TRNbq8L1NiWUs4TgRFQQvTcXAn4jespyBSo5B5+NYg2AMZFR5QKzEpDpDqZuo8QqXbDtPaoKs2trtHsF6wjbAUBWr1ft/5NZ0Aj4V4UEoZTwoPPQ+kBTtDR5bW6vAQKVot7MMOVxM+2ILSKS5V4w3emYAArMgDhH0uLEo0FGj/EZt0LULNWQxRRUVh0IK0AYJY6ygpNAsEI6NYpxZ9X7b+VaH6Fc5jsnMdk5jsnMdk5jsnMdk5jsnMdk5jsnMdk5jsnMdk5jsnMdk5jsnMdk5jsnMdk5jsnMdk5jsnMdk5jsnMdk5jsnMdk5jsnMdk5jsnMdk5jsnMdkE0T/iKCtHAlZ5NM1urwMUV0xAWGWX8gsTYqlb04tDVK5xhYBLhVYrngWeUCLVdZc4FhqjnDsLrPlsKTweHovbfyilxtwldpXaV2lNpTaU2ldpTaU2lNpTaU2lNpTaU2lNpXaU2lNpTaU2lNpTaU2lNpTaU2lNpTaU2lNpTaV2gTh5dE1urwUvmoUvkNDb+SqG0gZMnGthtBDM9bOXIHRKecZqApKyUCsLUJhLAeF6/wC+i9t/eGia3V4V2qteBLEurEyOjEkbCXQoVdDUjNKUujaKvAZYGUTk2QAg5U/DRCK6MuVDGWi0ZhS1OC0XWFYy1cSvfgzKEKFoJ/yAwooQOjaV6L2394aJrdUNdBKYiVM4TgO5f8R1bAICigBAlFaIzFgbV6ok02K95f6bSDVbs1Fz+GlsUbGtqrg6lVfOHEUmMKVm1G7G4Z8sJZA1V0twyVjSVVRf++ie2/vHTNbq8NQDi/DlYvidpcVUaabp/CBFEtLyG8FGIOlXLsTc4rBjEK1Cvovbf3jpmt1RLIdUzKRVIUXRhdvLiEI0Bvg3ROBqNyZFLVa5Q0RDRBYKBfw4vkCquWi7ryOUDK+6qhYl011XB9MC0dGHXB5LAcFMpWNr636L238o3EkpvKbyk65TeU3lN5TedcpvOuU3lN51ym8pvKbym8pvKbym8pvKbzrlN5TedcpvOuU3lN51ykp5dM1ur9H7b+UacYWmOc95znvOc95znvOc95znvOc95znvOr3nOe85z3nOe85z3nOe85z3nOe85z3nOe85z3nOe85z3nOe85z3nOe85z3nOe85z3nOe85z3nOe86vec57znPeZUb2S/wAmma3VOEccRhPy5NrJMehrWJCWnCFpxOCqmGs2yoMPBAYPIRcDNac4dQSEFFo47v8An4KzBJKOsQAaqZYWOLKICgVc/Se2/kxi6oeC79oUXsDr4DoFAW2Q9elieXdM1ur9H7b+TWe0eFZEJWq8H/8AQBxqaz5BJgpcQi0D1qiKHVlrfMQoBWIgrMEKD1uiafk0TW6poZRX1kxUcrJBXCPFgKiM0Q64iihLplV4rTiqouze3OFAV2zbrolsw4TVhkGWTBGgilMnnpvAAQrjFPIMowKRAC2mtTG8Uma8VojqAkoiqDV1fRe2/k1ntHglbrIVcoAoFurvMXhqhCpp3CiHR67RNPyMEucT9GIZxwIK/krPaPB2tldehWNriErFTUMp/wCfjteJcVJpVLyICTSYkLksBug4SykFMdSCPmBgFO4T0WiafkZVgWw52cl3nJd5yXecl3nJd5yXecl3nJd5yXecl3nJd5yXecl3nJd5yXecl3nJd5yXecl3nJd5yXecl3nJd5yXecl3nJd5yXecl3nJd5yXecl3nJd4JwjzZfi2D+SZ7R4G0C7ANiLpGQlQRwaCl3cv46wXkalIggFxN6RMguDQ1K6CipWqoycUCzWGFNFQmgam6HotE0/KlxLwldpWV2ldpXaVlZXaV2ldpWVldpXaV2lZXaV2ldpXaVldpXaV2ldpWV2lZXaV2ldpWV2hT+TZ7R4OFQNWjIVwUh/sEaKbm2WcnOAFWGpCxJRUvNRRJlAWAFON3H4QwAtCUWlBBQzWsFsyLWjMuJi5Y7EEsReGUqJzIVuvQ5hr6J0mn/ds9o8AKBdgX7ug2lo2RhBPnSgrSQTSswBogJC+xjXX+FPwRdJdwUtWMktvJNAW8WqgyWLxXkzxtW+srI9tVvK879E0TT/u2e0eA0tEVB3NSUjQC6qWj/B8AHcIKjs1BlBL1G34HSghyeR1lLZkA3ldeUVFwhoQI1siZ9Homn/ds9o8KhgwAV0GLmKjHG3E685YhgtGqFABFVmFaxTjVLXfLqqyf4xU8Foxbcroyu8N8C3wLVoawLowaecbFbtRhDiQ5a0ECwFcHQjEQxqoq4/6a+j0TT/u2e0fo9E0/wC7Z7R4X7xEEJAui0rxi30QIKpz1SiDnOkvJCsr2zbAiy1KwVJhFdODCpaJaBSsv8AVoyTlQe1WaXaD2y+CUo0OIXD5jOMYI2VQUzxOEXJl6nrpVKhiqTIq+txkbks0xaHDPv6J0mn/AHbPaP0eiaf92z2jwOUPU0RAFatbpiYrrL4Koai2bipoAAERRS60ji3khwximcyUDWohDLAlJXCoAPUCMYlaQwWuefnKEAVjPLRrEjQ+MrWW8AeGaIQlNFpojUrv9G6TT/u2dLNwQCfojVcIaP7ynDTz2Q/Bs+hZ9Cz6Fn0LPoWfQs+hZ9Cz6Fn0LPoWfQs+hZ9Cz6Fn0LPoWfQs+hZ9Cz6Fn0LPoWfQs+hZ9Cz6Fn0LPoWfQs+hYJw3owuFcq/vKjFZWUlJWVlZWVlJWVlPCpKysp4VJWVlZSUlZSVlJSVlJWFP1f8A/9k=;" vertex="1" parent="1">
                    <mxGeometry x="900" y="190" width="1340.45" height="1020" as="geometry"/>
                </mxCell>
                <mxCell id="33" style="edgeStyle=none;html=1;entryX=0;entryY=0.5;entryDx=0;entryDy=0;" edge="1" parent="1" source="17" target="25">
                    <mxGeometry relative="1" as="geometry">
                        <mxPoint x="340" y="140" as="targetPoint"/>
                    </mxGeometry>
                </mxCell>
                <mxCell id="35" value="Branches&lt;br&gt;" style="swimlane;fontStyle=0;childLayout=stackLayout;horizontal=1;startSize=30;horizontalStack=0;resizeParent=1;resizeParentMax=0;resizeLast=0;collapsible=1;marginBottom=0;whiteSpace=wrap;html=1;" vertex="1" parent="1">
                    <mxGeometry x="-250" y="320" width="140" height="240" as="geometry"/>
                </mxCell>
                <mxCell id="36" value="id&lt;br&gt;" style="text;strokeColor=none;fillColor=none;align=left;verticalAlign=middle;spacingLeft=4;spacingRight=4;overflow=hidden;points=[[0,0.5],[1,0.5]];portConstraint=eastwest;rotatable=0;whiteSpace=wrap;html=1;" vertex="1" parent="35">
                    <mxGeometry y="30" width="140" height="30" as="geometry"/>
                </mxCell>
                <mxCell id="37" value="name" style="text;strokeColor=none;fillColor=none;align=left;verticalAlign=middle;spacingLeft=4;spacingRight=4;overflow=hidden;points=[[0,0.5],[1,0.5]];portConstraint=eastwest;rotatable=0;whiteSpace=wrap;html=1;" vertex="1" parent="35">
                    <mxGeometry y="60" width="140" height="30" as="geometry"/>
                </mxCell>
                <mxCell id="38" value="address&lt;br&gt;" style="text;strokeColor=none;fillColor=none;align=left;verticalAlign=middle;spacingLeft=4;spacingRight=4;overflow=hidden;points=[[0,0.5],[1,0.5]];portConstraint=eastwest;rotatable=0;whiteSpace=wrap;html=1;" vertex="1" parent="35">
                    <mxGeometry y="90" width="140" height="30" as="geometry"/>
                </mxCell>
                <mxCell id="39" value="phone" style="text;strokeColor=none;fillColor=none;align=left;verticalAlign=middle;spacingLeft=4;spacingRight=4;overflow=hidden;points=[[0,0.5],[1,0.5]];portConstraint=eastwest;rotatable=0;whiteSpace=wrap;html=1;" vertex="1" parent="35">
                    <mxGeometry y="120" width="140" height="30" as="geometry"/>
                </mxCell>
                <mxCell id="40" value="startDate" style="text;strokeColor=none;fillColor=none;align=left;verticalAlign=middle;spacingLeft=4;spacingRight=4;overflow=hidden;points=[[0,0.5],[1,0.5]];portConstraint=eastwest;rotatable=0;whiteSpace=wrap;html=1;" vertex="1" parent="35">
                    <mxGeometry y="150" width="140" height="30" as="geometry"/>
                </mxCell>
                <mxCell id="41" value="endDate" style="text;strokeColor=none;fillColor=none;align=left;verticalAlign=middle;spacingLeft=4;spacingRight=4;overflow=hidden;points=[[0,0.5],[1,0.5]];portConstraint=eastwest;rotatable=0;whiteSpace=wrap;html=1;" vertex="1" parent="35">
                    <mxGeometry y="180" width="140" height="30" as="geometry"/>
                </mxCell>
                <mxCell id="56" value="status" style="text;strokeColor=none;fillColor=none;align=left;verticalAlign=middle;spacingLeft=4;spacingRight=4;overflow=hidden;points=[[0,0.5],[1,0.5]];portConstraint=eastwest;rotatable=0;whiteSpace=wrap;html=1;" vertex="1" parent="35">
                    <mxGeometry y="210" width="140" height="30" as="geometry"/>
                </mxCell>
                <mxCell id="47" value="Rooms" style="swimlane;fontStyle=0;childLayout=stackLayout;horizontal=1;startSize=30;horizontalStack=0;resizeParent=1;resizeParentMax=0;resizeLast=0;collapsible=1;marginBottom=0;whiteSpace=wrap;html=1;" vertex="1" parent="1">
                    <mxGeometry x="140" y="450" width="140" height="150" as="geometry"/>
                </mxCell>
                <mxCell id="48" value="id" style="text;strokeColor=none;fillColor=none;align=left;verticalAlign=middle;spacingLeft=4;spacingRight=4;overflow=hidden;points=[[0,0.5],[1,0.5]];portConstraint=eastwest;rotatable=0;whiteSpace=wrap;html=1;" vertex="1" parent="47">
                    <mxGeometry y="30" width="140" height="30" as="geometry"/>
                </mxCell>
                <mxCell id="49" value="branchId" style="text;strokeColor=none;fillColor=none;align=left;verticalAlign=middle;spacingLeft=4;spacingRight=4;overflow=hidden;points=[[0,0.5],[1,0.5]];portConstraint=eastwest;rotatable=0;whiteSpace=wrap;html=1;" vertex="1" parent="47">
                    <mxGeometry y="60" width="140" height="30" as="geometry"/>
                </mxCell>
                <mxCell id="50" value="name" style="text;strokeColor=none;fillColor=none;align=left;verticalAlign=middle;spacingLeft=4;spacingRight=4;overflow=hidden;points=[[0,0.5],[1,0.5]];portConstraint=eastwest;rotatable=0;whiteSpace=wrap;html=1;" vertex="1" parent="47">
                    <mxGeometry y="90" width="140" height="30" as="geometry"/>
                </mxCell>
                <mxCell id="55" value="status" style="text;strokeColor=none;fillColor=none;align=left;verticalAlign=middle;spacingLeft=4;spacingRight=4;overflow=hidden;points=[[0,0.5],[1,0.5]];portConstraint=eastwest;rotatable=0;whiteSpace=wrap;html=1;" vertex="1" parent="47">
                    <mxGeometry y="120" width="140" height="30" as="geometry"/>
                </mxCell>
                <mxCell id="59" style="edgeStyle=none;html=1;" edge="1" parent="1" source="36" target="34">
                    <mxGeometry relative="1" as="geometry">
                        <mxPoint x="-70.00000000000023" y="365" as="targetPoint"/>
                    </mxGeometry>
                </mxCell>
                <mxCell id="60" style="edgeStyle=none;html=1;entryX=0;entryY=0.5;entryDx=0;entryDy=0;" edge="1" parent="1" source="36" target="49">
                    <mxGeometry relative="1" as="geometry"/>
                </mxCell>
                <mxCell id="61" value="Order" style="swimlane;fontStyle=0;childLayout=stackLayout;horizontal=1;startSize=30;horizontalStack=0;resizeParent=1;resizeParentMax=0;resizeLast=0;collapsible=1;marginBottom=0;whiteSpace=wrap;html=1;" vertex="1" parent="1">
                    <mxGeometry x="330" y="290" width="140" height="120" as="geometry"/>
                </mxCell>
                <mxCell id="62" value="Item 1" style="text;strokeColor=none;fillColor=none;align=left;verticalAlign=middle;spacingLeft=4;spacingRight=4;overflow=hidden;points=[[0,0.5],[1,0.5]];portConstraint=eastwest;rotatable=0;whiteSpace=wrap;html=1;" vertex="1" parent="61">
                    <mxGeometry y="30" width="140" height="30" as="geometry"/>
                </mxCell>
                <mxCell id="63" value="Item 2" style="text;strokeColor=none;fillColor=none;align=left;verticalAlign=middle;spacingLeft=4;spacingRight=4;overflow=hidden;points=[[0,0.5],[1,0.5]];portConstraint=eastwest;rotatable=0;whiteSpace=wrap;html=1;" vertex="1" parent="61">
                    <mxGeometry y="60" width="140" height="30" as="geometry"/>
                </mxCell>
                <mxCell id="64" value="Item 3" style="text;strokeColor=none;fillColor=none;align=left;verticalAlign=middle;spacingLeft=4;spacingRight=4;overflow=hidden;points=[[0,0.5],[1,0.5]];portConstraint=eastwest;rotatable=0;whiteSpace=wrap;html=1;" vertex="1" parent="61">
                    <mxGeometry y="90" width="140" height="30" as="geometry"/>
                </mxCell>
                <mxCell id="65" value="" style="rounded=0;whiteSpace=wrap;html=1;" vertex="1" parent="1">
                    <mxGeometry x="920" y="850" width="480" height="110" as="geometry"/>
                </mxCell>
                <mxCell id="67" value="&lt;span style=&quot;background-color: rgb(24, 20, 29);&quot;&gt;roomId&amp;nbsp; &amp;nbsp; &amp;nbsp; &amp;nbsp; &amp;nbsp; BIGNIT&amp;nbsp; &amp;nbsp; &amp;nbsp; &amp;nbsp; &amp;nbsp; &amp;nbsp; &amp;nbsp;&lt;/span&gt;" style="text;html=1;strokeColor=none;fillColor=none;align=center;verticalAlign=middle;whiteSpace=wrap;rounded=0;" vertex="1" parent="1">
                    <mxGeometry x="1600" y="1190" width="160" height="10" as="geometry"/>
                </mxCell>
            </root>
        </mxGraphModel>
    </diagram>
</mxfile>